<svg width="577" height="151" viewBox="0 0 577 151" fill="none" xmlns="http://www.w3.org/2000/svg">
<rect width="577" height="151" fill="white"/>
<path d="M26.6318 12.2041H122.946C127.601 12.2041 131.374 15.9774 131.374 20.6318V97.6836C131.374 102.338 127.601 106.111 122.946 106.111H26.6318C21.9774 106.111 18.2041 102.338 18.2041 97.6836V20.6318C18.2041 15.9774 21.9774 12.2041 26.6318 12.2041Z" fill="#FEE2E2"/>
<path d="M26.6318 12.2041H122.946C127.601 12.2041 131.374 15.9774 131.374 20.6318V97.6836C131.374 102.338 127.601 106.111 122.946 106.111H26.6318C21.9774 106.111 18.2041 102.338 18.2041 97.6836V20.6318C18.2041 15.9774 21.9774 12.2041 26.6318 12.2041Z" stroke="#FCA5A5" stroke-width="2.40788"/>
<path d="M98.9056 68.7887H50.6537V49.526H98.9056V68.7887Z" stroke="#E5E7EB"/>
<path d="M51.69 63.526V53.0189H53.5934V61.9304H58.2211V63.526H51.69ZM62.0586 63.6851C61.5592 63.6851 61.1095 63.5961 60.7093 63.4183C60.3126 63.237 59.9979 62.9702 59.7653 62.6179C59.5362 62.2656 59.4216 61.8313 59.4216 61.3148C59.4216 60.8702 59.5037 60.5025 59.6678 60.2118C59.832 59.921 60.056 59.6885 60.3399 59.514C60.6238 59.3396 60.9436 59.2079 61.2993 59.119C61.6584 59.0266 62.0295 58.9599 62.4126 58.9189C62.8743 58.871 63.2489 58.8283 63.5362 58.7906C63.8235 58.7496 64.0321 58.688 64.1621 58.6059C64.2955 58.5204 64.3622 58.3887 64.3622 58.2109V58.1801C64.3622 57.7936 64.2476 57.4943 64.0184 57.2823C63.7893 57.0702 63.4592 56.9642 63.0283 56.9642C62.5734 56.9642 62.2125 57.0634 61.9457 57.2618C61.6824 57.4601 61.5045 57.6944 61.4122 57.9646L59.6781 57.7184C59.8149 57.2395 60.0406 56.8394 60.3553 56.5179C60.67 56.1929 61.0548 55.9501 61.5097 55.7893C61.9645 55.6252 62.4673 55.5431 63.018 55.5431C63.3976 55.5431 63.7756 55.5875 64.1518 55.6765C64.528 55.7654 64.8718 55.9125 65.183 56.1177C65.4943 56.3195 65.744 56.5948 65.9321 56.9437C66.1236 57.2926 66.2194 57.7286 66.2194 58.2519V63.526H64.434V62.4435H64.3724C64.2596 62.6624 64.1005 62.8676 63.8953 63.0591C63.6935 63.2473 63.4387 63.3995 63.1309 63.5157C62.8265 63.6286 62.469 63.6851 62.0586 63.6851ZM62.5409 62.3204C62.9137 62.3204 63.2369 62.2468 63.5105 62.0998C63.7841 61.9493 63.9945 61.7509 64.1416 61.5046C64.292 61.2584 64.3673 60.9899 64.3673 60.6991V59.7705C64.3091 59.8184 64.21 59.8629 64.0697 59.9039C63.9329 59.945 63.779 59.9809 63.608 60.0117C63.437 60.0425 63.2677 60.0698 63.1001 60.0938C62.9325 60.1177 62.7871 60.1382 62.664 60.1553C62.387 60.1929 62.139 60.2545 61.9201 60.34C61.7012 60.4255 61.5285 60.5452 61.4019 60.6991C61.2754 60.8496 61.2121 61.0446 61.2121 61.284C61.2121 61.626 61.3369 61.8843 61.5866 62.0587C61.8363 62.2331 62.1544 62.3204 62.5409 62.3204ZM68.0868 66.4811V55.6457H69.9133V56.9488H70.021C70.1168 56.7573 70.2519 56.5538 70.4263 56.3383C70.6008 56.1194 70.8368 55.933 71.1343 55.7791C71.4319 55.6217 71.8115 55.5431 72.2733 55.5431C72.8821 55.5431 73.431 55.6987 73.9201 56.0099C74.4127 56.3178 74.8026 56.7744 75.0899 57.3798C75.3806 57.9817 75.526 58.7205 75.526 59.5961C75.526 60.4614 75.384 61.1968 75.1001 61.8022C74.8162 62.4076 74.4298 62.8693 73.9407 63.1874C73.4516 63.5055 72.8975 63.6645 72.2784 63.6645C71.8269 63.6645 71.4524 63.5893 71.1548 63.4388C70.8573 63.2883 70.6179 63.107 70.4366 62.895C70.2587 62.6795 70.1202 62.476 70.021 62.2844H69.9441V66.4811H68.0868ZM69.9081 59.5858C69.9081 60.0955 69.98 60.5418 70.1236 60.9249C70.2707 61.308 70.481 61.6072 70.7547 61.8227C71.0317 62.0348 71.3669 62.1408 71.7602 62.1408C72.1707 62.1408 72.5144 62.0313 72.7914 61.8124C73.0685 61.5901 73.2771 61.2874 73.4174 60.9044C73.561 60.5179 73.6328 60.0784 73.6328 59.5858C73.6328 59.0967 73.5627 58.6624 73.4225 58.2827C73.2823 57.9031 73.0736 57.6055 72.7966 57.39C72.5195 57.1746 72.1741 57.0668 71.7602 57.0668C71.3635 57.0668 71.0266 57.1711 70.7495 57.3798C70.4725 57.5884 70.2621 57.8808 70.1185 58.2571C69.9783 58.6333 69.9081 59.0762 69.9081 59.5858ZM81.0514 55.6457V57.0822H76.5213V55.6457H81.0514ZM77.6397 53.7577H79.4969V61.1558C79.4969 61.4054 79.5345 61.597 79.6098 61.7304C79.6884 61.8603 79.791 61.9493 79.9176 61.9971C80.0441 62.045 80.1844 62.069 80.3383 62.069C80.4546 62.069 80.5606 62.0604 80.6564 62.0433C80.7556 62.0262 80.8308 62.0108 80.8821 61.9971L81.1951 63.4491C81.0959 63.4833 80.9539 63.5209 80.7692 63.5619C80.588 63.603 80.3656 63.6269 80.1023 63.6337C79.6371 63.6474 79.2181 63.5773 78.8453 63.4234C78.4725 63.2661 78.1767 63.0232 77.9578 62.6949C77.7423 62.3665 77.6363 61.9561 77.6397 61.4636V53.7577ZM85.9574 63.6799C85.1878 63.6799 84.5209 63.5106 83.9565 63.172C83.3922 62.8334 82.9544 62.3597 82.6431 61.7509C82.3353 61.1421 82.1814 60.4307 82.1814 59.6166C82.1814 58.8026 82.3353 58.0895 82.6431 57.4772C82.9544 56.865 83.3922 56.3896 83.9565 56.051C84.5209 55.7124 85.1878 55.5431 85.9574 55.5431C86.7269 55.5431 87.3939 55.7124 87.9582 56.051C88.5226 56.3896 88.9587 56.865 89.2665 57.4772C89.5777 58.0895 89.7334 58.8026 89.7334 59.6166C89.7334 60.4307 89.5777 61.1421 89.2665 61.7509C88.9587 62.3597 88.5226 62.8334 87.9582 63.172C87.3939 63.5106 86.7269 63.6799 85.9574 63.6799ZM85.9676 62.1921C86.3849 62.1921 86.7338 62.0775 87.0142 61.8484C87.2947 61.6158 87.5033 61.3045 87.6402 60.9146C87.7804 60.5247 87.8505 60.0903 87.8505 59.6115C87.8505 59.1292 87.7804 58.6932 87.6402 58.3032C87.5033 57.9099 87.2947 57.597 87.0142 57.3644C86.7338 57.1318 86.3849 57.0155 85.9676 57.0155C85.5401 57.0155 85.1844 57.1318 84.9005 57.3644C84.62 57.597 84.4097 57.9099 84.2695 58.3032C84.1327 58.6932 84.0643 59.1292 84.0643 59.6115C84.0643 60.0903 84.1327 60.5247 84.2695 60.9146C84.4097 61.3045 84.62 61.6158 84.9005 61.8484C85.1844 62.0775 85.5401 62.1921 85.9676 62.1921ZM91.3097 66.4811V55.6457H93.1361V56.9488H93.2439C93.3396 56.7573 93.4747 56.5538 93.6492 56.3383C93.8236 56.1194 94.0596 55.933 94.3572 55.7791C94.6547 55.6217 95.0344 55.5431 95.4961 55.5431C96.1049 55.5431 96.6539 55.6987 97.143 56.0099C97.6355 56.3178 98.0254 56.7744 98.3127 57.3798C98.6034 57.9817 98.7488 58.7205 98.7488 59.5961C98.7488 60.4614 98.6068 61.1968 98.323 61.8022C98.0391 62.4076 97.6526 62.8693 97.1635 63.1874C96.6744 63.5055 96.1203 63.6645 95.5012 63.6645C95.0498 63.6645 94.6752 63.5893 94.3777 63.4388C94.0801 63.2883 93.8407 63.107 93.6594 62.895C93.4816 62.6795 93.343 62.476 93.2439 62.2844H93.1669V66.4811H91.3097ZM93.131 59.5858C93.131 60.0955 93.2028 60.5418 93.3465 60.9249C93.4935 61.308 93.7039 61.6072 93.9775 61.8227C94.2545 62.0348 94.5897 62.1408 94.9831 62.1408C95.3935 62.1408 95.7372 62.0313 96.0143 61.8124C96.2913 61.5901 96.5 61.2874 96.6402 60.9044C96.7838 60.5179 96.8557 60.0784 96.8557 59.5858C96.8557 59.0967 96.7856 58.6624 96.6453 58.2827C96.5051 57.9031 96.2965 57.6055 96.0194 57.39C95.7424 57.1746 95.3969 57.0668 94.9831 57.0668C94.5863 57.0668 94.2494 57.1711 93.9724 57.3798C93.6953 57.5884 93.485 57.8808 93.3413 58.2571C93.2011 58.6333 93.131 59.0762 93.131 59.5858Z" fill="#B91C1C"/>
<path d="M275.632 12.2041H352.684C357.338 12.2041 361.111 15.9774 361.111 20.6318V78.4209C361.111 83.0751 357.338 86.8476 352.684 86.8477H275.632C270.978 86.8477 267.204 83.0752 267.204 78.4209V20.6318C267.204 15.9774 270.977 12.2041 275.632 12.2041Z" fill="#CBD5E1"/>
<path d="M275.632 12.2041H352.684C357.338 12.2041 361.111 15.9774 361.111 20.6318V78.4209C361.111 83.0751 357.338 86.8476 352.684 86.8477H275.632C270.978 86.8477 267.204 83.0752 267.204 78.4209V20.6318C267.204 15.9774 270.977 12.2041 275.632 12.2041Z" stroke="#3F4C60" stroke-width="2.40788"/>
<path d="M330.711 59.1572H297.584V39.8945H330.711V59.1572Z" stroke="#E5E7EB"/>
<path d="M293.036 55V44.4929H297.058C297.818 44.4929 298.449 44.6126 298.952 44.852C299.458 45.088 299.836 45.4112 300.085 45.8217C300.339 46.2321 300.465 46.6973 300.465 47.2172C300.465 47.6447 300.383 48.0107 300.219 48.3151C300.055 48.616 299.834 48.8606 299.557 49.0487C299.28 49.2368 298.97 49.3719 298.628 49.454V49.5566C299.001 49.5771 299.359 49.6917 299.701 49.9004C300.046 50.1056 300.328 50.3963 300.547 50.7725C300.766 51.1488 300.876 51.6037 300.876 52.1372C300.876 52.6811 300.744 53.1702 300.48 53.6045C300.217 54.0355 299.82 54.3758 299.29 54.6255C298.76 54.8752 298.093 55 297.289 55H293.036ZM294.94 53.4096H296.987C297.678 53.4096 298.175 53.2779 298.48 53.0145C298.787 52.7477 298.941 52.4057 298.941 51.9884C298.941 51.6772 298.864 51.3967 298.71 51.1471C298.557 50.894 298.338 50.6956 298.054 50.5519C297.77 50.4049 297.431 50.3313 297.038 50.3313H294.94V53.4096ZM294.94 48.9615H296.822C297.151 48.9615 297.447 48.9016 297.71 48.7819C297.973 48.6588 298.18 48.4861 298.331 48.2638C298.485 48.038 298.562 47.7712 298.562 47.4634C298.562 47.0564 298.418 46.7212 298.131 46.4579C297.847 46.1945 297.424 46.0628 296.864 46.0628H294.94V48.9615ZM305.887 55.1539C305.117 55.1539 304.45 54.9846 303.886 54.646C303.321 54.3074 302.884 53.8337 302.572 53.2249C302.265 52.6161 302.111 51.9046 302.111 51.0906C302.111 50.2766 302.265 49.5635 302.572 48.9512C302.884 48.339 303.321 47.8636 303.886 47.525C304.45 47.1864 305.117 47.0171 305.887 47.0171C306.656 47.0171 307.323 47.1864 307.888 47.525C308.452 47.8636 308.888 48.339 309.196 48.9512C309.507 49.5635 309.663 50.2766 309.663 51.0906C309.663 51.9046 309.507 52.6161 309.196 53.2249C308.888 53.8337 308.452 54.3074 307.888 54.646C307.323 54.9846 306.656 55.1539 305.887 55.1539ZM305.897 53.6661C306.314 53.6661 306.663 53.5515 306.944 53.3224C307.224 53.0898 307.433 52.7785 307.569 52.3886C307.71 51.9987 307.78 51.5643 307.78 51.0855C307.78 50.6032 307.71 50.1671 307.569 49.7772C307.433 49.3839 307.224 49.0709 306.944 48.8384C306.663 48.6058 306.314 48.4895 305.897 48.4895C305.469 48.4895 305.114 48.6058 304.83 48.8384C304.549 49.0709 304.339 49.3839 304.199 49.7772C304.062 50.1671 303.994 50.6032 303.994 51.0855C303.994 51.5643 304.062 51.9987 304.199 52.3886C304.339 52.7785 304.549 53.0898 304.83 53.3224C305.114 53.5515 305.469 53.6661 305.897 53.6661ZM314.676 55.1539C313.907 55.1539 313.24 54.9846 312.675 54.646C312.111 54.3074 311.673 53.8337 311.362 53.2249C311.054 52.6161 310.9 51.9046 310.9 51.0906C310.9 50.2766 311.054 49.5635 311.362 48.9512C311.673 48.339 312.111 47.8636 312.675 47.525C313.24 47.1864 313.907 47.0171 314.676 47.0171C315.446 47.0171 316.113 47.1864 316.677 47.525C317.242 47.8636 317.678 48.339 317.985 48.9512C318.297 49.5635 318.452 50.2766 318.452 51.0906C318.452 51.9046 318.297 52.6161 317.985 53.2249C317.678 53.8337 317.242 54.3074 316.677 54.646C316.113 54.9846 315.446 55.1539 314.676 55.1539ZM314.687 53.6661C315.104 53.6661 315.453 53.5515 315.733 53.3224C316.014 53.0898 316.222 52.7785 316.359 52.3886C316.499 51.9987 316.569 51.5643 316.569 51.0855C316.569 50.6032 316.499 50.1671 316.359 49.7772C316.222 49.3839 316.014 49.0709 315.733 48.8384C315.453 48.6058 315.104 48.4895 314.687 48.4895C314.259 48.4895 313.903 48.6058 313.619 48.8384C313.339 49.0709 313.129 49.3839 312.988 49.7772C312.852 50.1671 312.783 50.6032 312.783 51.0855C312.783 51.5643 312.852 51.9987 312.988 52.3886C313.129 52.7785 313.339 53.0898 313.619 53.3224C313.903 53.5515 314.259 53.6661 314.687 53.6661ZM321.722 52.5271L321.717 50.2851H322.014L324.846 47.1197H327.016L323.533 50.9983H323.148L321.722 52.5271ZM320.029 55V44.4929H321.886V55H320.029ZM324.974 55L322.409 51.4138L323.661 50.1056L327.196 55H324.974ZM334.482 49.2026L332.789 49.3873C332.741 49.2163 332.658 49.0556 332.538 48.9051C332.422 48.7546 332.264 48.6332 332.066 48.5408C331.868 48.4485 331.625 48.4023 331.337 48.4023C330.951 48.4023 330.626 48.4861 330.363 48.6537C330.103 48.8213 329.974 49.0385 329.978 49.3052C329.974 49.5344 330.058 49.7208 330.229 49.8645C330.404 50.0081 330.691 50.1261 331.091 50.2185L332.435 50.5058C333.181 50.6665 333.735 50.9213 334.098 51.2702C334.463 51.6191 334.648 52.0757 334.652 52.64C334.648 53.1359 334.503 53.5737 334.216 53.9534C333.932 54.3296 333.537 54.6238 333.03 54.8358C332.524 55.0479 331.943 55.1539 331.286 55.1539C330.322 55.1539 329.545 54.9521 328.957 54.5485C328.369 54.1415 328.018 53.5755 327.905 52.8504L329.716 52.6759C329.798 53.0316 329.973 53.3001 330.239 53.4814C330.506 53.6627 330.853 53.7533 331.281 53.7533C331.722 53.7533 332.076 53.6627 332.343 53.4814C332.613 53.3001 332.748 53.0761 332.748 52.8093C332.748 52.5836 332.661 52.3972 332.487 52.2501C332.316 52.103 332.049 51.9902 331.686 51.9115L330.342 51.6293C329.586 51.472 329.027 51.2069 328.664 50.8341C328.302 50.4579 328.122 49.9825 328.126 49.4078C328.122 48.9222 328.254 48.5015 328.521 48.1458C328.791 47.7866 329.165 47.5096 329.644 47.3146C330.127 47.1163 330.682 47.0171 331.312 47.0171C332.235 47.0171 332.962 47.2137 333.492 47.6071C334.026 48.0004 334.356 48.5323 334.482 49.2026Z" fill="#3F4C60"/>
<path d="M407.632 12.2041H484.684C489.338 12.2041 493.111 15.9774 493.111 20.6318V78.4209C493.111 83.0751 489.338 86.8476 484.684 86.8477H407.632C402.978 86.8477 399.204 83.0752 399.204 78.4209V20.6318C399.204 15.9774 402.977 12.2041 407.632 12.2041Z" fill="#D5ABFB"/>
<path d="M407.632 12.2041H484.684C489.338 12.2041 493.111 15.9774 493.111 20.6318V78.4209C493.111 83.0751 489.338 86.8476 484.684 86.8477H407.632C402.978 86.8477 399.204 83.0752 399.204 78.4209V20.6318C399.204 15.9774 402.977 12.2041 407.632 12.2041Z" stroke="#9333EA" stroke-width="2.40788"/>
<path d="M462.711 59.1572H429.584V39.8945H462.711V59.1572Z" stroke="#E5E7EB"/>
<path d="M431.036 55V44.4929H432.94V48.941H437.808V44.4929H439.717V55H437.808V50.5365H432.94V55H431.036ZM443.973 55.159C443.473 55.159 443.023 55.0701 442.623 54.8923C442.227 54.711 441.912 54.4442 441.679 54.0919C441.45 53.7396 441.336 53.3053 441.336 52.7888C441.336 52.3442 441.418 51.9765 441.582 51.6857C441.746 51.395 441.97 51.1624 442.254 50.988C442.538 50.8136 442.858 50.6819 443.213 50.593C443.572 50.5006 443.943 50.4339 444.327 50.3929C444.788 50.345 445.163 50.3022 445.45 50.2646C445.737 50.2236 445.946 50.162 446.076 50.0799C446.209 49.9944 446.276 49.8627 446.276 49.6849V49.6541C446.276 49.2676 446.162 48.9683 445.932 48.7563C445.703 48.5442 445.373 48.4382 444.942 48.4382C444.487 48.4382 444.126 48.5374 443.86 48.7358C443.596 48.9341 443.418 49.1684 443.326 49.4386L441.592 49.1924C441.729 48.7135 441.955 48.3134 442.269 47.9918C442.584 47.6669 442.969 47.4241 443.424 47.2633C443.879 47.0992 444.381 47.0171 444.932 47.0171C445.312 47.0171 445.69 47.0615 446.066 47.1505C446.442 47.2394 446.786 47.3865 447.097 47.5917C447.408 47.7935 447.658 48.0688 447.846 48.4177C448.038 48.7665 448.133 49.2026 448.133 49.7259V55H446.348V53.9175H446.286C446.174 54.1364 446.014 54.3416 445.809 54.5331C445.607 54.7212 445.353 54.8734 445.045 54.9897C444.74 55.1026 444.383 55.159 443.973 55.159ZM444.455 53.7944C444.828 53.7944 445.151 53.7208 445.424 53.5737C445.698 53.4233 445.908 53.2249 446.056 52.9786C446.206 52.7324 446.281 52.4639 446.281 52.1731V51.2445C446.223 51.2924 446.124 51.3369 445.984 51.3779C445.847 51.419 445.693 51.4549 445.522 51.4857C445.351 51.5164 445.182 51.5438 445.014 51.5678C444.846 51.5917 444.701 51.6122 444.578 51.6293C444.301 51.6669 444.053 51.7285 443.834 51.814C443.615 51.8995 443.442 52.0192 443.316 52.1731C443.189 52.3236 443.126 52.5186 443.126 52.758C443.126 53.1 443.251 53.3583 443.501 53.5327C443.75 53.7071 444.068 53.7944 444.455 53.7944ZM453.936 47.1197V48.5562H449.406V47.1197H453.936ZM450.524 45.2317H452.381V52.6297C452.381 52.8794 452.419 53.071 452.494 53.2044C452.573 53.3343 452.675 53.4233 452.802 53.4711C452.929 53.519 453.069 53.543 453.223 53.543C453.339 53.543 453.445 53.5344 453.541 53.5173C453.64 53.5002 453.715 53.4848 453.767 53.4711L454.079 54.923C453.98 54.9572 453.838 54.9949 453.654 55.0359C453.472 55.077 453.25 55.1009 452.987 55.1077C452.522 55.1214 452.103 55.0513 451.73 54.8974C451.357 54.7401 451.061 54.4972 450.842 54.1689C450.627 53.8405 450.521 53.4301 450.524 52.9376V45.2317ZM461.605 49.2026L459.911 49.3873C459.864 49.2163 459.78 49.0556 459.66 48.9051C459.544 48.7546 459.386 48.6332 459.188 48.5408C458.99 48.4485 458.747 48.4023 458.46 48.4023C458.073 48.4023 457.748 48.4861 457.485 48.6537C457.225 48.8213 457.097 49.0385 457.1 49.3052C457.097 49.5344 457.18 49.7208 457.351 49.8645C457.526 50.0081 457.813 50.1261 458.213 50.2185L459.558 50.5058C460.303 50.6665 460.857 50.9213 461.22 51.2702C461.586 51.6191 461.77 52.0757 461.774 52.64C461.77 53.1359 461.625 53.5737 461.338 53.9534C461.054 54.3296 460.659 54.6238 460.153 54.8358C459.646 55.0479 459.065 55.1539 458.408 55.1539C457.444 55.1539 456.667 54.9521 456.079 54.5485C455.491 54.1415 455.14 53.5755 455.027 52.8504L456.838 52.6759C456.92 53.0316 457.095 53.3001 457.362 53.4814C457.628 53.6627 457.976 53.7533 458.403 53.7533C458.844 53.7533 459.198 53.6627 459.465 53.4814C459.735 53.3001 459.87 53.0761 459.87 52.8093C459.87 52.5836 459.783 52.3972 459.609 52.2501C459.438 52.103 459.171 51.9902 458.808 51.9115L457.464 51.6293C456.708 51.472 456.149 51.2069 455.787 50.8341C455.424 50.4579 455.245 49.9825 455.248 49.4078C455.245 48.9222 455.376 48.5015 455.643 48.1458C455.913 47.7866 456.288 47.5096 456.767 47.3146C457.249 47.1163 457.805 47.0171 458.434 47.0171C459.357 47.0171 460.084 47.2137 460.614 47.6071C461.148 48.0004 461.478 48.5323 461.605 49.2026Z" fill="#9333EA"/>
</svg>
