<svg width="1018" height="339" viewBox="0 0 1018 339" fill="none" xmlns="http://www.w3.org/2000/svg" xmlns:xlink="http://www.w3.org/1999/xlink">
<g clip-path="url(#clip0_3314_1731)">
<g clip-path="url(#clip1_3314_1731)">
<mask id="path-1-inside-1_3314_1731" fill="white">
<rect width="1018" height="339" rx="10"/>
</mask>
<path d="M1017.5 0.49707H0.49707V338.503H1017.5V0.49707Z" fill="white" stroke="#B5C6DE" stroke-width="0.994135"/>
<path d="M169.7 0V339" stroke="#B5C6DE" stroke-width="0.994135"/>
<path d="M339.3 0V339" stroke="#B5C6DE" stroke-width="0.994135"/>
<path d="M509 0V339" stroke="#B5C6DE" stroke-width="0.994135"/>
<path d="M678.7 0V339" stroke="#B5C6DE" stroke-width="0.994135"/>
<path d="M848.3 0V339" stroke="#B5C6DE" stroke-width="0.994135"/>
<path d="M0 113.033H1018" stroke="#B5C6DE" stroke-width="0.994135"/>
<path d="M0 225.967H1018" stroke="#B5C6DE" stroke-width="0.994135"/>
<path d="M40.375 27.7969H155.376C162.323 27.797 167.954 33.4283 167.954 40.375V126.625C167.954 133.572 162.323 139.203 155.376 139.203H40.375C33.4283 139.203 27.7969 133.572 27.7969 126.625V40.375C27.7969 33.4283 33.4283 27.7969 40.375 27.7969Z" fill="#DBEAFE"/>
<path d="M40.375 27.7969H155.376C162.323 27.797 167.954 33.4283 167.954 40.375V126.625C167.954 133.572 162.323 139.203 155.376 139.203H40.375C33.4283 139.203 27.7969 133.572 27.7969 126.625V40.375C27.7969 33.4283 33.4283 27.7969 40.375 27.7969Z" stroke="#93C5FD" stroke-width="3.59375"/>
<path d="M122.582 97.875H73.1396V69.125H122.582V97.875Z" stroke="#E5E7EB"/>
<path d="M83.2087 78.7542C83.1372 78.0854 82.836 77.5647 82.3052 77.1921C81.7794 76.8194 81.0953 76.6331 80.253 76.6331C79.6609 76.6331 79.153 76.7225 78.7293 76.9011C78.3056 77.0798 77.9814 77.3223 77.7568 77.6286C77.5322 77.9348 77.4173 78.2845 77.4122 78.6776C77.4122 79.0043 77.4863 79.2876 77.6343 79.5275C77.7874 79.7674 77.9942 79.9716 78.2545 80.1401C78.5149 80.3034 78.8033 80.4413 79.1198 80.5536C79.4363 80.6659 79.7553 80.7603 80.0769 80.8369L81.5471 81.2044C82.1392 81.3423 82.7084 81.5286 83.2546 81.7634C83.8059 81.9982 84.2986 82.2943 84.7325 82.6516C85.1715 83.009 85.5186 83.4403 85.7738 83.9457C86.0291 84.4511 86.1567 85.0432 86.1567 85.7221C86.1567 86.641 85.9219 87.4501 85.4522 88.1495C84.9826 88.8437 84.3037 89.3874 83.4154 89.7804C82.5323 90.1684 81.4629 90.3624 80.2071 90.3624C78.9871 90.3624 77.9278 90.1735 77.0294 89.7957C76.136 89.418 75.4367 88.8667 74.9313 88.1418C74.4311 87.4169 74.1605 86.5338 74.1197 85.4924H76.9145C76.9554 86.0386 77.1238 86.493 77.4199 86.8554C77.716 87.2178 78.1014 87.4884 78.5761 87.6671C79.056 87.8457 79.592 87.9351 80.1841 87.9351C80.8018 87.9351 81.3429 87.8432 81.8074 87.6594C82.2771 87.4705 82.6446 87.2102 82.9101 86.8784C83.1755 86.5415 83.3108 86.1484 83.3159 85.6992C83.3108 85.2908 83.1908 84.9539 82.956 84.6884C82.7212 84.4179 82.3919 84.1933 81.9682 84.0146C81.5496 83.8308 81.0596 83.6675 80.4981 83.5245L78.714 83.0651C77.4224 82.7333 76.4015 82.2305 75.6511 81.5567C74.9058 80.8777 74.5332 79.9767 74.5332 78.8537C74.5332 77.9297 74.7833 77.1206 75.2836 76.4264C75.7889 75.7321 76.4755 75.1936 77.3433 74.8107C78.2111 74.4228 79.1938 74.2288 80.2913 74.2288C81.4042 74.2288 82.3792 74.4228 83.2163 74.8107C84.0586 75.1936 84.7197 75.727 85.1995 76.4111C85.6794 77.09 85.927 77.871 85.9423 78.7542H83.2087ZM91.3387 83.2336V90.125H88.5668V74.4432H91.2774V80.3621H91.4152C91.6909 79.6985 92.1171 79.1753 92.694 78.7924C93.2759 78.4045 94.0161 78.2105 94.9145 78.2105C95.7313 78.2105 96.4434 78.3815 97.0509 78.7235C97.6583 79.0655 98.128 79.5658 98.4598 80.2243C98.7967 80.8828 98.9652 81.6868 98.9652 82.6363V90.125H96.1933V83.0651C96.1933 82.2739 95.9891 81.6588 95.5807 81.2197C95.1774 80.7756 94.6108 80.5536 93.8808 80.5536C93.3908 80.5536 92.9518 80.6608 92.5638 80.8752C92.1809 81.0845 91.8798 81.3882 91.6603 81.7864C91.4459 82.1845 91.3387 82.6669 91.3387 83.2336ZM101.791 90.125V78.3636H104.563V90.125H101.791ZM103.184 76.6944C102.745 76.6944 102.367 76.5489 102.051 76.2579C101.734 75.9618 101.576 75.6071 101.576 75.1936C101.576 74.775 101.734 74.4202 102.051 74.1292C102.367 73.8332 102.745 73.6851 103.184 73.6851C103.628 73.6851 104.006 73.8332 104.318 74.1292C104.634 74.4202 104.792 74.775 104.792 75.1936C104.792 75.6071 104.634 75.9618 104.318 76.2579C104.006 76.5489 103.628 76.6944 103.184 76.6944ZM107.413 90.125V78.3636H110.101V80.3239H110.223C110.437 79.6449 110.805 79.1217 111.326 78.7542C111.851 78.3815 112.451 78.1952 113.125 78.1952C113.278 78.1952 113.449 78.2028 113.638 78.2182C113.832 78.2284 113.993 78.2462 114.121 78.2718V80.8216C114.003 80.7807 113.817 80.745 113.562 80.7144C113.311 80.6786 113.069 80.6608 112.834 80.6608C112.329 80.6608 111.874 80.7705 111.471 80.99C111.073 81.2044 110.759 81.5031 110.529 81.8859C110.3 82.2688 110.185 82.7103 110.185 83.2106V90.125H107.413ZM122.467 78.3636V80.5076H115.706V78.3636H122.467ZM117.375 75.5458H120.147V86.5874C120.147 86.9601 120.203 87.2459 120.315 87.445C120.433 87.639 120.586 87.7717 120.775 87.8432C120.963 87.9146 121.173 87.9504 121.402 87.9504C121.576 87.9504 121.734 87.9376 121.877 87.9121C122.025 87.8866 122.138 87.8636 122.214 87.8432L122.681 90.0101C122.533 90.0612 122.321 90.1173 122.046 90.1786C121.775 90.2399 121.443 90.2756 121.05 90.2858C120.356 90.3062 119.731 90.2016 119.174 89.9719C118.618 89.737 118.176 89.3746 117.85 88.8845C117.528 88.3945 117.37 87.7819 117.375 87.0468V75.5458Z" fill="#1D4ED8"/>
</g>
<rect width="1018" height="339" rx="10" stroke="url(#pattern0_3314_1731)" stroke-width="42" stroke-linecap="square" mask="url(#path-1-inside-1_3314_1731)"/>
</g>
<defs>
<clipPath id="clip0_3314_1731">
<rect width="1018" height="339" fill="white"/>
</clipPath>
<clipPath id="clip1_3314_1731">
<rect width="1018" height="339" rx="10" fill="white"/>
</clipPath>
<pattern id="pattern0_3314_1731" patternUnits="userSpaceOnUse" patternTransform="matrix(12 0 0 11 -21 -21.7372)" preserveAspectRatio="none" viewBox="0 -0.737152 12 11" width="1" height="1">
<use xlink:href="#pattern0_3314_1731_inner" transform="translate(-12 -11)"/>
<use xlink:href="#pattern0_3314_1731_inner" transform="translate(0 -11)"/>
<use xlink:href="#pattern0_3314_1731_inner" transform="translate(-12 0)"/>
<g id="pattern0_3314_1731_inner">
<line x1="0.337862" y1="-0.368577" x2="12.3379" y2="10.6314" stroke="black"/>
</g>
</pattern></defs>
</svg>
