<svg width="1058" height="2167" viewBox="0 0 1058 2167" fill="none" xmlns="http://www.w3.org/2000/svg" xmlns:xlink="http://www.w3.org/1999/xlink">
<rect x="0.5" y="0.5" width="1056.99" height="2166" rx="4.5" stroke="#8A38F5" stroke-dasharray="10 5"/>
<g clip-path="url(#clip0_3314_1607)">
<mask id="path-2-inside-1_3314_1607" fill="white">
<rect x="20" y="20" width="1017.99" height="339" rx="10"/>
</mask>
<path d="M1037.5 20.4971H20.4971V358.503H1037.5V20.4971Z" fill="white" stroke="#B5C6DE" stroke-width="0.994135"/>
<path d="M189.699 20V359" stroke="#B5C6DE" stroke-width="0.994135"/>
<path d="M359.298 20V359" stroke="#B5C6DE" stroke-width="0.994135"/>
<path d="M528.997 20V359" stroke="#B5C6DE" stroke-width="0.994135"/>
<path d="M698.696 20V359" stroke="#B5C6DE" stroke-width="0.994135"/>
<path d="M868.295 20V359" stroke="#B5C6DE" stroke-width="0.994135"/>
<path d="M20 133.033H1037.99" stroke="#B5C6DE" stroke-width="0.994135"/>
<path d="M20 245.967H1037.99" stroke="#B5C6DE" stroke-width="0.994135"/>
<path d="M60.375 47.7969H175.375C182.322 47.7969 187.953 53.4283 187.953 60.375V146.625C187.953 153.572 182.322 159.203 175.375 159.203H60.375C53.4283 159.203 47.7969 153.572 47.7969 146.625V60.375C47.7969 53.4283 53.4283 47.7969 60.375 47.7969Z" fill="#DBEAFE"/>
<path d="M60.375 47.7969H175.375C182.322 47.7969 187.953 53.4283 187.953 60.375V146.625C187.953 153.572 182.322 159.203 175.375 159.203H60.375C53.4283 159.203 47.7969 153.572 47.7969 146.625V60.375C47.7969 53.4283 53.4283 47.7969 60.375 47.7969Z" stroke="#93C5FD" stroke-width="3.59375"/>
<path d="M142.582 117.875H93.1395V89.125H142.582V117.875Z" stroke="#E5E7EB"/>
<path d="M103.209 98.7542C103.137 98.0854 102.836 97.5647 102.305 97.1921C101.779 96.8194 101.095 96.6331 100.253 96.6331C99.6609 96.6331 99.1529 96.7225 98.7292 96.9011C98.3055 97.0798 97.9814 97.3223 97.7568 97.6286C97.5322 97.9348 97.4173 98.2845 97.4122 98.6776C97.4122 99.0043 97.4862 99.2876 97.6343 99.5275C97.7874 99.7674 97.9942 99.9716 98.2545 100.14C98.5148 100.303 98.8033 100.441 99.1198 100.554C99.4362 100.666 99.7553 100.76 100.077 100.837L101.547 101.204C102.139 101.342 102.708 101.529 103.255 101.763C103.806 101.998 104.299 102.294 104.732 102.652C105.171 103.009 105.519 103.44 105.774 103.946C106.029 104.451 106.157 105.043 106.157 105.722C106.157 106.641 105.922 107.45 105.452 108.149C104.983 108.844 104.304 109.387 103.415 109.78C102.532 110.168 101.463 110.362 100.207 110.362C98.987 110.362 97.9278 110.173 97.0294 109.796C96.136 109.418 95.4367 108.867 94.9313 108.142C94.431 107.417 94.1605 106.534 94.1196 105.492H96.9145C96.9553 106.039 97.1238 106.493 97.4199 106.855C97.7159 107.218 98.1014 107.488 98.5761 107.667C99.0559 107.846 99.5919 107.935 100.184 107.935C100.802 107.935 101.343 107.843 101.807 107.659C102.277 107.471 102.645 107.21 102.91 106.878C103.175 106.541 103.311 106.148 103.316 105.699C103.311 105.291 103.191 104.954 102.956 104.688C102.721 104.418 102.392 104.193 101.968 104.015C101.55 103.831 101.06 103.667 100.498 103.525L98.7139 103.065C97.4224 102.733 96.4015 102.23 95.6511 101.557C94.9058 100.878 94.5331 99.9767 94.5331 98.8537C94.5331 97.9297 94.7833 97.1206 95.2835 96.4264C95.7889 95.7321 96.4755 95.1936 97.3433 94.8107C98.2111 94.4228 99.1938 94.2288 100.291 94.2288C101.404 94.2288 102.379 94.4228 103.216 94.8107C104.059 95.1936 104.72 95.727 105.2 96.4111C105.679 97.09 105.927 97.871 105.942 98.7542H103.209ZM111.339 103.234V110.125H108.567V94.4432H111.277V100.362H111.415C111.691 99.6985 112.117 99.1753 112.694 98.7924C113.276 98.4045 114.016 98.2105 114.915 98.2105C115.731 98.2105 116.443 98.3815 117.051 98.7235C117.658 99.0655 118.128 99.5658 118.46 100.224C118.797 100.883 118.965 101.687 118.965 102.636V110.125H116.193V103.065C116.193 102.274 115.989 101.659 115.581 101.22C115.177 100.776 114.611 100.554 113.881 100.554C113.391 100.554 112.952 100.661 112.564 100.875C112.181 101.084 111.88 101.388 111.66 101.786C111.446 102.185 111.339 102.667 111.339 103.234ZM121.791 110.125V98.3636H124.563V110.125H121.791ZM123.184 96.6944C122.745 96.6944 122.367 96.5489 122.051 96.2579C121.734 95.9618 121.576 95.6071 121.576 95.1936C121.576 94.775 121.734 94.4202 122.051 94.1292C122.367 93.8332 122.745 93.6851 123.184 93.6851C123.628 93.6851 124.006 93.8332 124.317 94.1292C124.634 94.4202 124.792 94.775 124.792 95.1936C124.792 95.6071 124.634 95.9618 124.317 96.2579C124.006 96.5489 123.628 96.6944 123.184 96.6944ZM127.413 110.125V98.3636H130.101V100.324H130.223C130.437 99.6449 130.805 99.1217 131.326 98.7542C131.851 98.3815 132.451 98.1952 133.125 98.1952C133.278 98.1952 133.449 98.2028 133.638 98.2182C133.832 98.2284 133.993 98.2462 134.121 98.2718V100.822C134.003 100.781 133.817 100.745 133.562 100.714C133.311 100.679 133.069 100.661 132.834 100.661C132.329 100.661 131.874 100.771 131.471 100.99C131.073 101.204 130.759 101.503 130.529 101.886C130.3 102.269 130.185 102.71 130.185 103.211V110.125H127.413ZM142.467 98.3636V100.508H135.706V98.3636H142.467ZM137.375 95.5458H140.147V106.587C140.147 106.96 140.203 107.246 140.315 107.445C140.433 107.639 140.586 107.772 140.775 107.843C140.963 107.915 141.173 107.95 141.402 107.95C141.576 107.95 141.734 107.938 141.877 107.912C142.025 107.887 142.138 107.864 142.214 107.843L142.681 110.01C142.533 110.061 142.321 110.117 142.046 110.179C141.775 110.24 141.443 110.276 141.05 110.286C140.356 110.306 139.731 110.202 139.174 109.972C138.618 109.737 138.176 109.375 137.85 108.885C137.528 108.394 137.37 107.782 137.375 107.047V95.5458Z" fill="#1D4ED8"/>
</g>
<rect x="20" y="20" width="1017.99" height="339" rx="10" stroke="url(#pattern0_3314_1607)" stroke-width="42" stroke-linecap="square" mask="url(#path-2-inside-1_3314_1607)"/>
<g clip-path="url(#clip1_3314_1607)">
<mask id="path-15-inside-2_3314_1607" fill="white">
<rect x="20" y="467" width="1017.99" height="339" rx="10"/>
</mask>
<path d="M1037.5 467.497H20.4971V805.503H1037.5V467.497Z" fill="white" stroke="#B5C6DE" stroke-width="0.994135"/>
<path d="M189.699 467V806" stroke="#B5C6DE" stroke-width="0.994135"/>
<path d="M359.298 467V806" stroke="#B5C6DE" stroke-width="0.994135"/>
<path d="M528.997 467V806" stroke="#B5C6DE" stroke-width="0.994135"/>
<path d="M698.696 467V806" stroke="#B5C6DE" stroke-width="0.994135"/>
<path d="M868.295 467V806" stroke="#B5C6DE" stroke-width="0.994135"/>
<path d="M20 580.033H1037.99" stroke="#B5C6DE" stroke-width="0.994135"/>
<path d="M20 692.967H1037.99" stroke="#B5C6DE" stroke-width="0.994135"/>
<path d="M60.375 581.797H175.375C182.322 581.797 187.953 587.428 187.953 594.375V680.625C187.953 687.572 182.322 693.203 175.375 693.203H60.375C53.4283 693.203 47.7969 687.572 47.7969 680.625V594.375C47.7969 587.428 53.4283 581.797 60.375 581.797Z" fill="#DBEAFE"/>
<path d="M60.375 581.797H175.375C182.322 581.797 187.953 587.428 187.953 594.375V680.625C187.953 687.572 182.322 693.203 175.375 693.203H60.375C53.4283 693.203 47.7969 687.572 47.7969 680.625V594.375C47.7969 587.428 53.4283 581.797 60.375 581.797Z" stroke="#93C5FD" stroke-width="3.59375"/>
<path d="M142.582 651.875H93.1395V623.125H142.582V651.875Z" stroke="#E5E7EB"/>
<path d="M103.209 632.754C103.137 632.085 102.836 631.565 102.305 631.192C101.779 630.819 101.095 630.633 100.253 630.633C99.6609 630.633 99.1529 630.722 98.7292 630.901C98.3055 631.08 97.9814 631.322 97.7568 631.629C97.5322 631.935 97.4173 632.285 97.4122 632.678C97.4122 633.004 97.4862 633.288 97.6343 633.528C97.7874 633.767 97.9942 633.972 98.2545 634.14C98.5148 634.303 98.8033 634.441 99.1198 634.554C99.4362 634.666 99.7553 634.76 100.077 634.837L101.547 635.204C102.139 635.342 102.708 635.529 103.255 635.763C103.806 635.998 104.299 636.294 104.732 636.652C105.171 637.009 105.519 637.44 105.774 637.946C106.029 638.451 106.157 639.043 106.157 639.722C106.157 640.641 105.922 641.45 105.452 642.149C104.983 642.844 104.304 643.387 103.415 643.78C102.532 644.168 101.463 644.362 100.207 644.362C98.987 644.362 97.9278 644.173 97.0294 643.796C96.136 643.418 95.4367 642.867 94.9313 642.142C94.431 641.417 94.1605 640.534 94.1196 639.492H96.9145C96.9553 640.039 97.1238 640.493 97.4199 640.855C97.7159 641.218 98.1014 641.488 98.5761 641.667C99.0559 641.846 99.5919 641.935 100.184 641.935C100.802 641.935 101.343 641.843 101.807 641.659C102.277 641.471 102.645 641.21 102.91 640.878C103.175 640.541 103.311 640.148 103.316 639.699C103.311 639.291 103.191 638.954 102.956 638.688C102.721 638.418 102.392 638.193 101.968 638.015C101.55 637.831 101.06 637.667 100.498 637.525L98.7139 637.065C97.4224 636.733 96.4015 636.23 95.6511 635.557C94.9058 634.878 94.5331 633.977 94.5331 632.854C94.5331 631.93 94.7833 631.121 95.2835 630.426C95.7889 629.732 96.4755 629.194 97.3433 628.811C98.2111 628.423 99.1938 628.229 100.291 628.229C101.404 628.229 102.379 628.423 103.216 628.811C104.059 629.194 104.72 629.727 105.2 630.411C105.679 631.09 105.927 631.871 105.942 632.754H103.209ZM111.339 637.234V644.125H108.567V628.443H111.277V634.362H111.415C111.691 633.699 112.117 633.175 112.694 632.792C113.276 632.404 114.016 632.21 114.915 632.21C115.731 632.21 116.443 632.382 117.051 632.724C117.658 633.066 118.128 633.566 118.46 634.224C118.797 634.883 118.965 635.687 118.965 636.636V644.125H116.193V637.065C116.193 636.274 115.989 635.659 115.581 635.22C115.177 634.776 114.611 634.554 113.881 634.554C113.391 634.554 112.952 634.661 112.564 634.875C112.181 635.084 111.88 635.388 111.66 635.786C111.446 636.185 111.339 636.667 111.339 637.234ZM121.791 644.125V632.364H124.563V644.125H121.791ZM123.184 630.694C122.745 630.694 122.367 630.549 122.051 630.258C121.734 629.962 121.576 629.607 121.576 629.194C121.576 628.775 121.734 628.42 122.051 628.129C122.367 627.833 122.745 627.685 123.184 627.685C123.628 627.685 124.006 627.833 124.317 628.129C124.634 628.42 124.792 628.775 124.792 629.194C124.792 629.607 124.634 629.962 124.317 630.258C124.006 630.549 123.628 630.694 123.184 630.694ZM127.413 644.125V632.364H130.101V634.324H130.223C130.437 633.645 130.805 633.122 131.326 632.754C131.851 632.382 132.451 632.195 133.125 632.195C133.278 632.195 133.449 632.203 133.638 632.218C133.832 632.228 133.993 632.246 134.121 632.272V634.822C134.003 634.781 133.817 634.745 133.562 634.714C133.311 634.679 133.069 634.661 132.834 634.661C132.329 634.661 131.874 634.771 131.471 634.99C131.073 635.204 130.759 635.503 130.529 635.886C130.3 636.269 130.185 636.71 130.185 637.211V644.125H127.413ZM142.467 632.364V634.508H135.706V632.364H142.467ZM137.375 629.546H140.147V640.587C140.147 640.96 140.203 641.246 140.315 641.445C140.433 641.639 140.586 641.772 140.775 641.843C140.963 641.915 141.173 641.95 141.402 641.95C141.576 641.95 141.734 641.938 141.877 641.912C142.025 641.887 142.138 641.864 142.214 641.843L142.681 644.01C142.533 644.061 142.321 644.117 142.046 644.179C141.775 644.24 141.443 644.276 141.05 644.286C140.356 644.306 139.731 644.202 139.174 643.972C138.618 643.737 138.176 643.375 137.85 642.885C137.528 642.394 137.37 641.782 137.375 641.047V629.546Z" fill="#1D4ED8"/>
</g>
<rect x="20" y="467" width="1017.99" height="339" rx="10" stroke="url(#pattern1_3314_1607)" stroke-width="42" stroke-linecap="square" mask="url(#path-15-inside-2_3314_1607)"/>
<g clip-path="url(#clip2_3314_1607)">
<mask id="path-28-inside-3_3314_1607" fill="white">
<rect x="20" y="914" width="1017.99" height="339" rx="10"/>
</mask>
<path d="M1037.5 914.497H20.4971V1252.5H1037.5V914.497Z" fill="white" stroke="#B5C6DE" stroke-width="0.994135"/>
<path d="M189.699 914V1253" stroke="#B5C6DE" stroke-width="0.994135"/>
<path d="M359.298 914V1253" stroke="#B5C6DE" stroke-width="0.994135"/>
<path d="M528.997 914V1253" stroke="#B5C6DE" stroke-width="0.994135"/>
<path d="M698.696 914V1253" stroke="#B5C6DE" stroke-width="0.994135"/>
<path d="M868.295 914V1253" stroke="#B5C6DE" stroke-width="0.994135"/>
<path d="M20 1027.03H1037.99" stroke="#B5C6DE" stroke-width="0.994135"/>
<path d="M20 1139.97H1037.99" stroke="#B5C6DE" stroke-width="0.994135"/>
<path d="M229.375 940.797H344.375C351.322 940.797 356.953 946.428 356.953 953.375V1039.62C356.953 1046.57 351.322 1052.2 344.375 1052.2H229.375C222.428 1052.2 216.797 1046.57 216.797 1039.62V953.375C216.797 946.428 222.428 940.797 229.375 940.797Z" fill="#DBEAFE"/>
<path d="M229.375 940.797H344.375C351.322 940.797 356.953 946.428 356.953 953.375V1039.62C356.953 1046.57 351.322 1052.2 344.375 1052.2H229.375C222.428 1052.2 216.797 1046.57 216.797 1039.62V953.375C216.797 946.428 222.428 940.797 229.375 940.797Z" stroke="#93C5FD" stroke-width="3.59375"/>
<path d="M311.582 1010.88H262.14V982.125H311.582V1010.88Z" stroke="#E5E7EB"/>
<path d="M272.209 991.754C272.137 991.085 271.836 990.565 271.305 990.192C270.779 989.819 270.095 989.633 269.253 989.633C268.661 989.633 268.153 989.722 267.729 989.901C267.306 990.08 266.982 990.322 266.757 990.629C266.532 990.935 266.417 991.285 266.412 991.678C266.412 992.004 266.486 992.288 266.634 992.528C266.788 992.767 266.994 992.972 267.255 993.14C267.515 993.303 267.803 993.441 268.12 993.554C268.436 993.666 268.755 993.76 269.077 993.837L270.547 994.204C271.139 994.342 271.709 994.529 272.255 994.763C272.806 994.998 273.299 995.294 273.733 995.652C274.172 996.009 274.519 996.44 274.774 996.946C275.029 997.451 275.157 998.043 275.157 998.722C275.157 999.641 274.922 1000.45 274.452 1001.15C273.983 1001.84 273.304 1002.39 272.416 1002.78C271.532 1003.17 270.463 1003.36 269.207 1003.36C267.987 1003.36 266.928 1003.17 266.029 1002.8C265.136 1002.42 264.437 1001.87 263.931 1001.14C263.431 1000.42 263.161 999.534 263.12 998.492H265.915C265.955 999.039 266.124 999.493 266.42 999.855C266.716 1000.22 267.101 1000.49 267.576 1000.67C268.056 1000.85 268.592 1000.94 269.184 1000.94C269.802 1000.94 270.343 1000.84 270.808 1000.66C271.277 1000.47 271.645 1000.21 271.91 999.878C272.176 999.541 272.311 999.148 272.316 998.699C272.311 998.291 272.191 997.954 271.956 997.688C271.721 997.418 271.392 997.193 270.968 997.015C270.55 996.831 270.06 996.667 269.498 996.525L267.714 996.065C266.423 995.733 265.402 995.23 264.651 994.557C263.906 993.878 263.533 992.977 263.533 991.854C263.533 990.93 263.783 990.121 264.284 989.426C264.789 988.732 265.476 988.194 266.343 987.811C267.211 987.423 268.194 987.229 269.291 987.229C270.404 987.229 271.379 987.423 272.216 987.811C273.059 988.194 273.72 988.727 274.2 989.411C274.679 990.09 274.927 990.871 274.942 991.754H272.209ZM280.339 996.234V1003.12H277.567V987.443H280.277V993.362H280.415C280.691 992.699 281.117 992.175 281.694 991.792C282.276 991.404 283.016 991.21 283.915 991.21C284.731 991.21 285.444 991.382 286.051 991.724C286.658 992.066 287.128 992.566 287.46 993.224C287.797 993.883 287.965 994.687 287.965 995.636V1003.12H285.193V996.065C285.193 995.274 284.989 994.659 284.581 994.22C284.178 993.776 283.611 993.554 282.881 993.554C282.391 993.554 281.952 993.661 281.564 993.875C281.181 994.084 280.88 994.388 280.66 994.786C280.446 995.185 280.339 995.667 280.339 996.234ZM290.791 1003.12V991.364H293.563V1003.12H290.791ZM292.184 989.694C291.745 989.694 291.368 989.549 291.051 989.258C290.735 988.962 290.576 988.607 290.576 988.194C290.576 987.775 290.735 987.42 291.051 987.129C291.368 986.833 291.745 986.685 292.184 986.685C292.628 986.685 293.006 986.833 293.318 987.129C293.634 987.42 293.792 987.775 293.792 988.194C293.792 988.607 293.634 988.962 293.318 989.258C293.006 989.549 292.628 989.694 292.184 989.694ZM296.413 1003.12V991.364H299.101V993.324H299.223C299.438 992.645 299.805 992.122 300.326 991.754C300.852 991.382 301.451 991.195 302.125 991.195C302.278 991.195 302.449 991.203 302.638 991.218C302.832 991.228 302.993 991.246 303.121 991.272V993.822C303.003 993.781 302.817 993.745 302.562 993.714C302.312 993.679 302.069 993.661 301.834 993.661C301.329 993.661 300.875 993.771 300.471 993.99C300.073 994.204 299.759 994.503 299.529 994.886C299.3 995.269 299.185 995.71 299.185 996.211V1003.12H296.413ZM311.467 991.364V993.508H304.706V991.364H311.467ZM306.375 988.546H309.147V999.587C309.147 999.96 309.203 1000.25 309.315 1000.45C309.433 1000.64 309.586 1000.77 309.775 1000.84C309.964 1000.91 310.173 1000.95 310.403 1000.95C310.576 1000.95 310.734 1000.94 310.877 1000.91C311.025 1000.89 311.138 1000.86 311.214 1000.84L311.681 1003.01C311.533 1003.06 311.321 1003.12 311.046 1003.18C310.775 1003.24 310.443 1003.28 310.05 1003.29C309.356 1003.31 308.731 1003.2 308.174 1002.97C307.618 1002.74 307.176 1002.37 306.85 1001.88C306.528 1001.39 306.37 1000.78 306.375 1000.05V988.546Z" fill="#1D4ED8"/>
</g>
<rect x="20" y="914" width="1017.99" height="339" rx="10" stroke="url(#pattern2_3314_1607)" stroke-width="42" stroke-linecap="square" mask="url(#path-28-inside-3_3314_1607)"/>
<g clip-path="url(#clip3_3314_1607)">
<mask id="path-41-inside-4_3314_1607" fill="white">
<rect x="20" y="1361" width="1017.99" height="339" rx="10"/>
</mask>
<path d="M1037.5 1361.5H20.4971V1699.5H1037.5V1361.5Z" fill="white" stroke="#B5C6DE" stroke-width="0.994135"/>
<path d="M189.699 1361V1700" stroke="#B5C6DE" stroke-width="0.994135"/>
<path d="M359.298 1361V1700" stroke="#B5C6DE" stroke-width="0.994135"/>
<path d="M528.997 1361V1700" stroke="#B5C6DE" stroke-width="0.994135"/>
<path d="M698.696 1361V1700" stroke="#B5C6DE" stroke-width="0.994135"/>
<path d="M868.295 1361V1700" stroke="#B5C6DE" stroke-width="0.994135"/>
<path d="M20 1474.03H1037.99" stroke="#B5C6DE" stroke-width="0.994135"/>
<path d="M20 1586.97H1037.99" stroke="#B5C6DE" stroke-width="0.994135"/>
<path d="M229.375 1475.8H344.375C351.322 1475.8 356.953 1481.43 356.953 1488.38V1574.62C356.953 1581.57 351.322 1587.2 344.375 1587.2H229.375C222.428 1587.2 216.797 1581.57 216.797 1574.62V1488.38C216.797 1481.43 222.428 1475.8 229.375 1475.8Z" fill="#DBEAFE"/>
<path d="M229.375 1475.8H344.375C351.322 1475.8 356.953 1481.43 356.953 1488.38V1574.62C356.953 1581.57 351.322 1587.2 344.375 1587.2H229.375C222.428 1587.2 216.797 1581.57 216.797 1574.62V1488.38C216.797 1481.43 222.428 1475.8 229.375 1475.8Z" stroke="#93C5FD" stroke-width="3.59375"/>
<path d="M311.582 1545.88H262.14V1517.12H311.582V1545.88Z" stroke="#E5E7EB"/>
<path d="M272.209 1526.75C272.137 1526.09 271.836 1525.56 271.305 1525.19C270.779 1524.82 270.095 1524.63 269.253 1524.63C268.661 1524.63 268.153 1524.72 267.729 1524.9C267.306 1525.08 266.982 1525.32 266.757 1525.63C266.532 1525.93 266.417 1526.28 266.412 1526.68C266.412 1527 266.486 1527.29 266.634 1527.53C266.788 1527.77 266.994 1527.97 267.255 1528.14C267.515 1528.3 267.803 1528.44 268.12 1528.55C268.436 1528.67 268.755 1528.76 269.077 1528.84L270.547 1529.2C271.139 1529.34 271.709 1529.53 272.255 1529.76C272.806 1530 273.299 1530.29 273.733 1530.65C274.172 1531.01 274.519 1531.44 274.774 1531.95C275.029 1532.45 275.157 1533.04 275.157 1533.72C275.157 1534.64 274.922 1535.45 274.452 1536.15C273.983 1536.84 273.304 1537.39 272.416 1537.78C271.532 1538.17 270.463 1538.36 269.207 1538.36C267.987 1538.36 266.928 1538.17 266.029 1537.8C265.136 1537.42 264.437 1536.87 263.931 1536.14C263.431 1535.42 263.161 1534.53 263.12 1533.49H265.915C265.955 1534.04 266.124 1534.49 266.42 1534.86C266.716 1535.22 267.101 1535.49 267.576 1535.67C268.056 1535.85 268.592 1535.94 269.184 1535.94C269.802 1535.94 270.343 1535.84 270.808 1535.66C271.277 1535.47 271.645 1535.21 271.91 1534.88C272.176 1534.54 272.311 1534.15 272.316 1533.7C272.311 1533.29 272.191 1532.95 271.956 1532.69C271.721 1532.42 271.392 1532.19 270.968 1532.01C270.55 1531.83 270.06 1531.67 269.498 1531.52L267.714 1531.07C266.423 1530.73 265.402 1530.23 264.651 1529.56C263.906 1528.88 263.533 1527.98 263.533 1526.85C263.533 1525.93 263.783 1525.12 264.284 1524.43C264.789 1523.73 265.476 1523.19 266.343 1522.81C267.211 1522.42 268.194 1522.23 269.291 1522.23C270.404 1522.23 271.379 1522.42 272.216 1522.81C273.059 1523.19 273.72 1523.73 274.2 1524.41C274.679 1525.09 274.927 1525.87 274.942 1526.75H272.209ZM280.339 1531.23V1538.12H277.567V1522.44H280.277V1528.36H280.415C280.691 1527.7 281.117 1527.18 281.694 1526.79C282.276 1526.4 283.016 1526.21 283.915 1526.21C284.731 1526.21 285.444 1526.38 286.051 1526.72C286.658 1527.07 287.128 1527.57 287.46 1528.22C287.797 1528.88 287.965 1529.69 287.965 1530.64V1538.12H285.193V1531.07C285.193 1530.27 284.989 1529.66 284.581 1529.22C284.178 1528.78 283.611 1528.55 282.881 1528.55C282.391 1528.55 281.952 1528.66 281.564 1528.88C281.181 1529.08 280.88 1529.39 280.66 1529.79C280.446 1530.18 280.339 1530.67 280.339 1531.23ZM290.791 1538.12V1526.36H293.563V1538.12H290.791ZM292.184 1524.69C291.745 1524.69 291.368 1524.55 291.051 1524.26C290.735 1523.96 290.576 1523.61 290.576 1523.19C290.576 1522.77 290.735 1522.42 291.051 1522.13C291.368 1521.83 291.745 1521.69 292.184 1521.69C292.628 1521.69 293.006 1521.83 293.318 1522.13C293.634 1522.42 293.792 1522.77 293.792 1523.19C293.792 1523.61 293.634 1523.96 293.318 1524.26C293.006 1524.55 292.628 1524.69 292.184 1524.69ZM296.413 1538.12V1526.36H299.101V1528.32H299.223C299.438 1527.64 299.805 1527.12 300.326 1526.75C300.852 1526.38 301.451 1526.2 302.125 1526.2C302.278 1526.2 302.449 1526.2 302.638 1526.22C302.832 1526.23 302.993 1526.25 303.121 1526.27V1528.82C303.003 1528.78 302.817 1528.75 302.562 1528.71C302.312 1528.68 302.069 1528.66 301.834 1528.66C301.329 1528.66 300.875 1528.77 300.471 1528.99C300.073 1529.2 299.759 1529.5 299.529 1529.89C299.3 1530.27 299.185 1530.71 299.185 1531.21V1538.12H296.413ZM311.467 1526.36V1528.51H304.706V1526.36H311.467ZM306.375 1523.55H309.147V1534.59C309.147 1534.96 309.203 1535.25 309.315 1535.45C309.433 1535.64 309.586 1535.77 309.775 1535.84C309.964 1535.91 310.173 1535.95 310.403 1535.95C310.576 1535.95 310.734 1535.94 310.877 1535.91C311.025 1535.89 311.138 1535.86 311.214 1535.84L311.681 1538.01C311.533 1538.06 311.321 1538.12 311.046 1538.18C310.775 1538.24 310.443 1538.28 310.05 1538.29C309.356 1538.31 308.731 1538.2 308.174 1537.97C307.618 1537.74 307.176 1537.37 306.85 1536.88C306.528 1536.39 306.37 1535.78 306.375 1535.05V1523.55Z" fill="#1D4ED8"/>
</g>
<rect x="20" y="1361" width="1017.99" height="339" rx="10" stroke="url(#pattern3_3314_1607)" stroke-width="42" stroke-linecap="square" mask="url(#path-41-inside-4_3314_1607)"/>
<g clip-path="url(#clip4_3314_1607)">
<mask id="path-54-inside-5_3314_1607" fill="white">
<rect x="20" y="1808" width="1017.99" height="339" rx="10"/>
</mask>
<path d="M1037.5 1808.5H20.4971V2146.5H1037.5V1808.5Z" fill="white" stroke="#B5C6DE" stroke-width="0.994135"/>
<path d="M189.699 1808V2147" stroke="#B5C6DE" stroke-width="0.994135"/>
<path d="M359.298 1808V2147" stroke="#B5C6DE" stroke-width="0.994135"/>
<path d="M528.997 1808V2147" stroke="#B5C6DE" stroke-width="0.994135"/>
<path d="M698.696 1808V2147" stroke="#B5C6DE" stroke-width="0.994135"/>
<path d="M868.295 1808V2147" stroke="#B5C6DE" stroke-width="0.994135"/>
<path d="M20 1921.03H1037.99" stroke="#B5C6DE" stroke-width="0.994135"/>
<path d="M20 2033.97H1037.99" stroke="#B5C6DE" stroke-width="0.994135"/>
</g>
<rect x="20" y="1808" width="1017.99" height="339" rx="10" stroke="url(#pattern4_3314_1607)" stroke-width="42" stroke-linecap="square" mask="url(#path-54-inside-5_3314_1607)"/>
<defs>
<clipPath id="clip0_3314_1607">
<rect x="20" y="20" width="1017.99" height="339" rx="10" fill="white"/>
</clipPath>
<clipPath id="clip1_3314_1607">
<rect x="20" y="467" width="1017.99" height="339" rx="10" fill="white"/>
</clipPath>
<clipPath id="clip2_3314_1607">
<rect x="20" y="914" width="1017.99" height="339" rx="10" fill="white"/>
</clipPath>
<clipPath id="clip3_3314_1607">
<rect x="20" y="1361" width="1017.99" height="339" rx="10" fill="white"/>
</clipPath>
<clipPath id="clip4_3314_1607">
<rect x="20" y="1808" width="1017.99" height="339" rx="10" fill="white"/>
</clipPath>
<pattern id="pattern0_3314_1607" patternUnits="userSpaceOnUse" patternTransform="matrix(12 0 0 11 -1 -1.73715)" preserveAspectRatio="none" viewBox="0 -0.737152 12 11" width="1" height="1">
<use xlink:href="#pattern0_3314_1607_inner" transform="translate(-12 -11)"/>
<use xlink:href="#pattern0_3314_1607_inner" transform="translate(0 -11)"/>
<use xlink:href="#pattern0_3314_1607_inner" transform="translate(-12 0)"/>
<g id="pattern0_3314_1607_inner">
<line x1="0.337862" y1="-0.368577" x2="12.3379" y2="10.6314" stroke="black"/>
</g>
</pattern><pattern id="pattern1_3314_1607" patternUnits="userSpaceOnUse" patternTransform="matrix(12 0 0 11 -1 445.263)" preserveAspectRatio="none" viewBox="0 -0.737152 12 11" width="1" height="1">
<use xlink:href="#pattern1_3314_1607_inner" transform="translate(-12 -11)"/>
<use xlink:href="#pattern1_3314_1607_inner" transform="translate(0 -11)"/>
<use xlink:href="#pattern1_3314_1607_inner" transform="translate(-12 0)"/>
<g id="pattern1_3314_1607_inner">
<line x1="0.337862" y1="-0.368577" x2="12.3379" y2="10.6314" stroke="black"/>
</g>
</pattern><pattern id="pattern2_3314_1607" patternUnits="userSpaceOnUse" patternTransform="matrix(12 0 0 11 -1 892.263)" preserveAspectRatio="none" viewBox="0 -0.737152 12 11" width="1" height="1">
<use xlink:href="#pattern2_3314_1607_inner" transform="translate(-12 -11)"/>
<use xlink:href="#pattern2_3314_1607_inner" transform="translate(0 -11)"/>
<use xlink:href="#pattern2_3314_1607_inner" transform="translate(-12 0)"/>
<g id="pattern2_3314_1607_inner">
<line x1="0.337862" y1="-0.368577" x2="12.3379" y2="10.6314" stroke="black"/>
</g>
</pattern><pattern id="pattern3_3314_1607" patternUnits="userSpaceOnUse" patternTransform="matrix(12 0 0 11 -1 1339.26)" preserveAspectRatio="none" viewBox="0 -0.737152 12 11" width="1" height="1">
<use xlink:href="#pattern3_3314_1607_inner" transform="translate(-12 -11)"/>
<use xlink:href="#pattern3_3314_1607_inner" transform="translate(0 -11)"/>
<use xlink:href="#pattern3_3314_1607_inner" transform="translate(-12 0)"/>
<g id="pattern3_3314_1607_inner">
<line x1="0.337862" y1="-0.368577" x2="12.3379" y2="10.6314" stroke="black"/>
</g>
</pattern><pattern id="pattern4_3314_1607" patternUnits="userSpaceOnUse" patternTransform="matrix(12 0 0 11 -1 1786.26)" preserveAspectRatio="none" viewBox="0 -0.737152 12 11" width="1" height="1">
<use xlink:href="#pattern4_3314_1607_inner" transform="translate(-12 -11)"/>
<use xlink:href="#pattern4_3314_1607_inner" transform="translate(0 -11)"/>
<use xlink:href="#pattern4_3314_1607_inner" transform="translate(-12 0)"/>
<g id="pattern4_3314_1607_inner">
<line x1="0.337862" y1="-0.368577" x2="12.3379" y2="10.6314" stroke="black"/>
</g>
</pattern></defs>
</svg>
