<svg width="1728" height="1117" viewBox="0 0 1728 1117" fill="none" xmlns="http://www.w3.org/2000/svg">
<g clip-path="url(#clip0_3350_2321)">
<path d="M1728 0H0V1117H1728V0Z" fill="#F1F5F9"/>
<path d="M1728 0H0V1117H1728V0Z" fill="url(#paint0_radial_3350_2321)"/>
<path d="M1728 0H0V1117H1728V0Z" fill="url(#paint1_radial_3350_2321)"/>
<path d="M1334.4 186.167H393.6C375.043 186.167 360 201.725 360 220.918V896.082C360 915.275 375.043 930.833 393.6 930.833H1334.4C1352.96 930.833 1368 915.275 1368 896.082V220.918C1368 201.725 1352.96 186.167 1334.4 186.167Z" fill="white" stroke="#E2E8F0" stroke-width="1.24111"/>
<path d="M864 402.12C906.416 402.12 940.8 366.558 940.8 322.689C940.8 278.82 906.416 243.258 864 243.258C821.585 243.258 787.2 278.82 787.2 322.689C787.2 366.558 821.585 402.12 864 402.12Z" fill="url(#paint2_linear_3350_2321)"/>
<path opacity="0.12" d="M864 394.673C902.439 394.673 933.6 362.445 933.6 322.689C933.6 282.933 902.439 250.704 864 250.704C825.561 250.704 794.4 282.933 794.4 322.689C794.4 362.445 825.561 394.673 864 394.673Z" fill="white"/>
<path d="M837.601 327.653L861.601 352.476L897.601 310.278" stroke="white" stroke-width="12.4111" stroke-linecap="round" stroke-linejoin="round"/>
<g opacity="0.7">
<path d="M631.201 235.811H626.401C625.075 235.811 624.001 236.922 624.001 238.293V253.187C624.001 254.558 625.075 255.669 626.401 255.669H631.201C632.526 255.669 633.601 254.558 633.601 253.187V238.293C633.601 236.922 632.526 235.811 631.201 235.811Z" fill="#C4B5FD"/>
<path d="M1159.2 260.633H1154.4C1153.07 260.633 1152 261.745 1152 263.116V278.009C1152 279.38 1153.07 280.491 1154.4 280.491H1159.2C1160.53 280.491 1161.6 279.38 1161.6 278.009V263.116C1161.6 261.745 1160.53 260.633 1159.2 260.633Z" fill="#93C5FD"/>
<path d="M600 451.764C602.651 451.764 604.8 449.542 604.8 446.8C604.8 444.058 602.651 441.836 600 441.836C597.349 441.836 595.2 444.058 595.2 446.8C595.2 449.542 597.349 451.764 600 451.764Z" fill="#A78BFA"/>
<path d="M1176 415.772C1179.31 415.772 1182 412.994 1182 409.567C1182 406.139 1179.31 403.361 1176 403.361C1172.69 403.361 1170 406.139 1170 409.567C1170 412.994 1172.69 415.772 1176 415.772Z" fill="#60A5FA"/>
<path d="M1048.8 533.678H1046.4C1045.07 533.678 1044 534.789 1044 536.16V546.089C1044 547.46 1045.07 548.571 1046.4 548.571H1048.8C1050.13 548.571 1051.2 547.46 1051.2 546.089V536.16C1051.2 534.789 1050.13 533.678 1048.8 533.678Z" fill="#A5B4FC"/>
<path d="M676.801 533.678H674.401C673.075 533.678 672.001 534.789 672.001 536.16V546.089C672.001 547.46 673.075 548.571 674.401 548.571H676.801C678.126 548.571 679.201 547.46 679.201 546.089V536.16C679.201 534.789 678.126 533.678 676.801 533.678Z" fill="#93C5FD"/>
</g>
<path d="M801.298 444.946C801.351 443.624 800.964 442.603 800.139 441.884C799.325 441.164 798.093 440.805 796.443 440.805C795.321 440.805 794.348 440.964 793.523 441.281C792.698 441.588 792.037 442.016 791.54 442.566C791.053 443.105 790.752 443.73 790.635 444.438C790.519 445.02 790.556 445.528 790.746 445.961C790.947 446.395 791.259 446.771 791.683 447.088C792.116 447.395 792.629 447.664 793.222 447.897C793.814 448.119 794.443 448.31 795.11 448.468L797.902 449.166C799.267 449.484 800.494 449.907 801.583 450.436C802.683 450.965 803.604 451.615 804.344 452.387C805.095 453.16 805.624 454.069 805.931 455.116C806.237 456.164 806.28 457.364 806.058 458.718C805.719 460.707 804.931 462.431 803.694 463.891C802.456 465.34 800.832 466.466 798.823 467.27C796.813 468.063 794.486 468.46 791.841 468.46C789.218 468.46 787.002 468.058 785.193 467.254C783.384 466.45 782.068 465.26 781.242 463.684C780.428 462.098 780.185 460.136 780.513 457.798H787.161C787.044 458.887 787.203 459.797 787.637 460.527C788.081 461.246 788.742 461.791 789.62 462.161C790.498 462.521 791.529 462.701 792.714 462.701C793.888 462.701 794.93 462.531 795.84 462.193C796.76 461.854 797.506 461.384 798.077 460.781C798.648 460.178 798.997 459.485 799.124 458.702C799.251 457.972 799.14 457.359 798.791 456.862C798.442 456.365 797.881 455.941 797.109 455.592C796.347 455.233 795.401 454.915 794.269 454.64L790.873 453.752C788.25 453.086 786.267 452.044 784.923 450.626C783.58 449.209 783.099 447.3 783.48 444.898C783.818 442.931 784.638 441.212 785.939 439.742C787.251 438.261 788.901 437.113 790.889 436.299C792.888 435.474 795.073 435.061 797.442 435.061C799.854 435.061 801.89 435.479 803.551 436.315C805.211 437.14 806.423 438.293 807.184 439.774C807.946 441.254 808.178 442.979 807.882 444.946H801.298ZM818.152 453.911L815.804 468H809.06L814.455 435.505H821.008L818.977 447.929H819.247C820.029 446.49 821.103 445.364 822.468 444.549C823.832 443.724 825.445 443.312 827.307 443.312C828.999 443.312 830.411 443.682 831.543 444.422C832.686 445.152 833.495 446.205 833.971 447.58C834.447 448.944 834.526 450.579 834.209 452.483L831.607 468H824.863L827.243 453.688C827.487 452.186 827.291 451.018 826.656 450.182C826.032 449.346 825.038 448.928 823.673 448.928C822.753 448.928 821.907 449.124 821.135 449.516C820.363 449.907 819.712 450.478 819.183 451.229C818.665 451.97 818.321 452.863 818.152 453.911ZM843.78 468.46C842.236 468.46 840.898 468.19 839.766 467.651C838.645 467.101 837.82 466.286 837.291 465.208C836.762 464.129 836.63 462.791 836.894 461.193C837.127 459.839 837.566 458.708 838.211 457.798C838.867 456.878 839.665 456.137 840.607 455.577C841.548 455.016 842.59 454.588 843.733 454.291C844.886 453.995 846.076 453.794 847.303 453.688C848.72 453.54 849.873 453.398 850.761 453.26C851.661 453.123 852.332 452.927 852.776 452.673C853.221 452.409 853.49 452.017 853.586 451.499V451.404C853.744 450.409 853.559 449.637 853.03 449.087C852.512 448.527 851.682 448.246 850.539 448.246C849.333 448.246 848.307 448.511 847.461 449.04C846.626 449.568 846.028 450.24 845.668 451.055L839.512 450.547C840.062 449.066 840.892 447.786 842.003 446.707C843.124 445.618 844.473 444.782 846.049 444.2C847.625 443.608 849.392 443.312 851.348 443.312C852.702 443.312 853.966 443.47 855.141 443.788C856.325 444.105 857.346 444.597 858.203 445.263C859.07 445.93 859.694 446.787 860.075 447.834C860.466 448.87 860.546 450.113 860.313 451.562L857.568 468H851.158L851.729 464.62H851.539C851.021 465.382 850.386 466.054 849.635 466.635C848.884 467.207 848.022 467.656 847.049 467.984C846.076 468.301 844.986 468.46 843.78 468.46ZM846.493 463.795C847.477 463.795 848.381 463.6 849.207 463.208C850.042 462.806 850.73 462.267 851.269 461.59C851.819 460.913 852.168 460.146 852.316 459.289L852.729 456.703C852.517 456.841 852.211 456.962 851.809 457.068C851.417 457.174 850.989 457.274 850.523 457.369C850.069 457.454 849.608 457.533 849.143 457.607C848.678 457.671 848.26 457.734 847.89 457.798C847.075 457.914 846.345 458.099 845.7 458.353C845.055 458.607 844.531 458.951 844.129 459.385C843.727 459.808 843.479 460.336 843.384 460.971C843.235 461.891 843.452 462.595 844.034 463.081C844.626 463.557 845.446 463.795 846.493 463.795ZM862.812 468L866.874 443.629H873.427L872.713 447.881H872.967C873.665 446.369 874.601 445.226 875.775 444.454C876.96 443.671 878.234 443.28 879.599 443.28C879.937 443.28 880.292 443.301 880.662 443.343C881.043 443.375 881.381 443.428 881.677 443.502L880.662 449.516C880.366 449.41 879.943 449.325 879.392 449.262C878.853 449.188 878.34 449.151 877.853 449.151C876.87 449.151 875.955 449.367 875.109 449.801C874.262 450.224 873.548 450.817 872.967 451.578C872.395 452.34 872.02 453.218 871.84 454.212L869.571 468H862.812ZM891.003 468.476C888.506 468.476 886.439 467.968 884.799 466.953C883.159 465.927 882.006 464.478 881.34 462.605C880.684 460.723 880.573 458.496 881.007 455.926C881.43 453.419 882.281 451.219 883.561 449.325C884.852 447.432 886.47 445.956 888.417 444.898C890.363 443.841 892.531 443.312 894.922 443.312C896.53 443.312 897.984 443.571 899.285 444.089C900.597 444.597 901.686 445.369 902.554 446.406C903.421 447.432 904.013 448.717 904.331 450.261C904.659 451.806 904.653 453.614 904.315 455.688L904.013 457.544H883.45L884.101 453.355H898.317C898.476 452.382 898.412 451.52 898.127 450.769C897.841 450.018 897.365 449.431 896.699 449.008C896.032 448.574 895.213 448.357 894.24 448.357C893.245 448.357 892.314 448.601 891.447 449.087C890.58 449.574 889.85 450.214 889.257 451.007C888.676 451.79 888.3 452.641 888.131 453.562L887.385 457.719C887.174 458.998 887.216 460.061 887.512 460.908C887.819 461.754 888.348 462.389 889.099 462.812C889.85 463.224 890.802 463.43 891.955 463.43C892.706 463.43 893.409 463.325 894.065 463.113C894.731 462.902 895.324 462.59 895.842 462.177C896.36 461.754 896.783 461.23 897.111 460.606L903.283 461.019C902.712 462.521 901.845 463.832 900.681 464.954C899.518 466.064 898.116 466.932 896.477 467.556C894.848 468.169 893.023 468.476 891.003 468.476ZM915.655 468.397C913.794 468.397 912.191 467.921 910.848 466.969C909.515 466.006 908.563 464.594 907.992 462.732C907.431 460.86 907.378 458.565 907.833 455.846C908.299 453.054 909.134 450.732 910.34 448.881C911.546 447.019 912.974 445.628 914.624 444.708C916.274 443.777 917.993 443.312 919.781 443.312C921.135 443.312 922.229 443.544 923.065 444.01C923.911 444.465 924.562 445.036 925.017 445.723C925.471 446.4 925.789 447.067 925.969 447.723H926.175L928.222 435.505H934.965L929.57 468H922.906L923.557 464.097H923.271C922.848 464.774 922.287 465.445 921.589 466.112C920.902 466.768 920.066 467.312 919.082 467.746C918.109 468.18 916.967 468.397 915.655 468.397ZM918.638 463.018C919.717 463.018 920.69 462.722 921.558 462.129C922.425 461.526 923.155 460.686 923.747 459.607C924.34 458.528 924.752 457.264 924.985 455.815C925.228 454.365 925.233 453.107 925.001 452.038C924.768 450.97 924.313 450.145 923.636 449.563C922.97 448.981 922.087 448.69 920.986 448.69C919.876 448.69 918.892 448.992 918.035 449.595C917.189 450.198 916.486 451.033 915.925 452.102C915.375 453.17 914.984 454.408 914.751 455.815C914.518 457.232 914.502 458.485 914.703 459.575C914.904 460.654 915.333 461.5 915.988 462.114C916.644 462.716 917.528 463.018 918.638 463.018ZM948.55 435.505L944.171 458.258H938.396L941.522 435.505H948.55ZM939.998 468.413C938.93 468.413 938.052 468.042 937.365 467.302C936.688 466.561 936.381 465.662 936.444 464.605C936.518 463.557 936.957 462.674 937.761 461.955C938.576 461.225 939.512 460.86 940.57 460.86C941.585 460.86 942.442 461.225 943.14 461.955C943.838 462.685 944.145 463.568 944.06 464.605C944.007 465.303 943.78 465.943 943.378 466.524C942.987 467.096 942.489 467.556 941.887 467.905C941.284 468.243 940.654 468.413 939.998 468.413Z" fill="#0F172A"/>
<path d="M714.072 500.558H716.075L720.08 507.299H720.249L724.255 500.558H726.257L721.039 509.048V515H719.29V509.048L714.072 500.558ZM731.162 515.226C730.184 515.226 729.326 514.993 728.588 514.528C727.855 514.062 727.281 513.411 726.867 512.574C726.458 511.737 726.254 510.76 726.254 509.641C726.254 508.512 726.458 507.527 726.867 506.686C727.281 505.844 727.855 505.191 728.588 504.726C729.326 504.26 730.184 504.027 731.162 504.027C732.14 504.027 732.995 504.26 733.729 504.726C734.467 505.191 735.04 505.844 735.449 506.686C735.863 507.527 736.07 508.512 736.07 509.641C736.07 510.76 735.863 511.737 735.449 512.574C735.04 513.411 734.467 514.062 733.729 514.528C732.995 514.993 732.14 515.226 731.162 515.226ZM731.162 513.731C731.905 513.731 732.516 513.54 732.995 513.159C733.475 512.779 733.83 512.278 734.06 511.657C734.29 511.037 734.406 510.365 734.406 509.641C734.406 508.917 734.29 508.242 734.06 507.617C733.83 506.992 733.475 506.486 732.995 506.101C732.516 505.715 731.905 505.522 731.162 505.522C730.419 505.522 729.808 505.715 729.328 506.101C728.849 506.486 728.494 506.992 728.264 507.617C728.033 508.242 727.918 508.917 727.918 509.641C727.918 510.365 728.033 511.037 728.264 511.657C728.494 512.278 728.849 512.779 729.328 513.159C729.808 513.54 730.419 513.731 731.162 513.731ZM745.436 510.571V504.168H747.101V515H745.436V513.167H745.324C745.07 513.717 744.675 514.184 744.139 514.57C743.603 514.951 742.926 515.141 742.108 515.141C741.431 515.141 740.829 514.993 740.303 514.697C739.776 514.396 739.362 513.945 739.062 513.343C738.761 512.736 738.61 511.972 738.61 511.051V504.168H740.274V510.938C740.274 511.728 740.495 512.358 740.937 512.828C741.384 513.298 741.953 513.533 742.644 513.533C743.058 513.533 743.478 513.427 743.906 513.216C744.339 513.004 744.701 512.68 744.992 512.243C745.288 511.806 745.436 511.248 745.436 510.571ZM750.149 515V504.168H751.756V505.804H751.869C752.067 505.269 752.424 504.834 752.941 504.5C753.458 504.166 754.041 503.999 754.69 503.999C754.812 503.999 754.965 504.002 755.148 504.006C755.332 504.011 755.47 504.018 755.564 504.027V505.72C755.508 505.706 755.379 505.685 755.177 505.656C754.979 505.623 754.77 505.607 754.549 505.607C754.022 505.607 753.552 505.718 753.139 505.938C752.73 506.155 752.405 506.456 752.165 506.841C751.93 507.222 751.813 507.657 751.813 508.146V515H750.149ZM763.122 519.062V504.168H764.73V505.889H764.927C765.05 505.701 765.219 505.461 765.435 505.17C765.656 504.874 765.971 504.61 766.38 504.38C766.794 504.145 767.353 504.027 768.058 504.027C768.97 504.027 769.774 504.255 770.47 504.711C771.166 505.167 771.709 505.814 772.099 506.651C772.489 507.488 772.684 508.475 772.684 509.612C772.684 510.76 772.489 511.754 772.099 512.595C771.709 513.432 771.168 514.081 770.477 514.542C769.786 514.998 768.989 515.226 768.087 515.226C767.391 515.226 766.834 515.11 766.415 514.88C765.997 514.645 765.675 514.379 765.449 514.083C765.224 513.782 765.05 513.533 764.927 513.336H764.786V519.062H763.122ZM764.758 509.584C764.758 510.402 764.878 511.124 765.118 511.749C765.358 512.37 765.708 512.856 766.169 513.209C766.629 513.557 767.193 513.731 767.861 513.731C768.557 513.731 769.137 513.547 769.603 513.181C770.073 512.809 770.425 512.311 770.66 511.686C770.9 511.056 771.02 510.355 771.02 509.584C771.02 508.823 770.903 508.136 770.668 507.525C770.437 506.909 770.087 506.423 769.617 506.065C769.151 505.703 768.566 505.522 767.861 505.522C767.184 505.522 766.615 505.694 766.154 506.037C765.694 506.376 765.346 506.851 765.111 507.462C764.876 508.068 764.758 508.776 764.758 509.584ZM778.41 515.254C777.724 515.254 777.101 515.125 776.542 514.866C775.982 514.603 775.538 514.224 775.209 513.731C774.88 513.232 774.715 512.631 774.715 511.925C774.715 511.305 774.837 510.802 775.082 510.416C775.326 510.026 775.653 509.721 776.062 509.5C776.471 509.279 776.922 509.114 777.416 509.006C777.914 508.893 778.415 508.804 778.918 508.738C779.576 508.653 780.11 508.59 780.519 508.548C780.933 508.501 781.233 508.423 781.421 508.315C781.614 508.207 781.711 508.019 781.711 507.751V507.694C781.711 506.999 781.52 506.458 781.139 506.072C780.763 505.687 780.192 505.494 779.426 505.494C778.631 505.494 778.008 505.668 777.557 506.016C777.106 506.364 776.788 506.735 776.605 507.13L775.026 506.566C775.308 505.908 775.684 505.395 776.154 505.029C776.629 504.657 777.146 504.399 777.705 504.253C778.269 504.103 778.824 504.027 779.369 504.027C779.717 504.027 780.117 504.07 780.568 504.154C781.024 504.234 781.464 504.401 781.887 504.655C782.315 504.909 782.67 505.292 782.952 505.804C783.234 506.317 783.375 507.003 783.375 507.864V515H781.711V513.533H781.626C781.513 513.768 781.325 514.02 781.062 514.288C780.799 514.556 780.448 514.784 780.011 514.972C779.574 515.16 779.04 515.254 778.41 515.254ZM778.664 513.759C779.322 513.759 779.877 513.63 780.328 513.371C780.784 513.112 781.128 512.779 781.358 512.37C781.593 511.961 781.711 511.531 781.711 511.079V509.556C781.64 509.641 781.485 509.718 781.245 509.789C781.01 509.855 780.737 509.913 780.427 509.965C780.122 510.012 779.823 510.054 779.532 510.092C779.245 510.125 779.012 510.153 778.834 510.177C778.401 510.233 777.997 510.325 777.621 510.452C777.249 510.574 776.948 510.76 776.718 511.009C776.492 511.253 776.379 511.587 776.379 512.01C776.379 512.588 776.593 513.026 777.021 513.322C777.454 513.613 778.001 513.759 778.664 513.759ZM790.813 515.226C789.797 515.226 788.923 514.986 788.189 514.506C787.456 514.027 786.892 513.366 786.497 512.525C786.102 511.683 785.905 510.722 785.905 509.641C785.905 508.541 786.107 507.57 786.511 506.728C786.92 505.882 787.489 505.222 788.218 504.747C788.951 504.267 789.807 504.027 790.784 504.027C791.546 504.027 792.232 504.168 792.844 504.451C793.455 504.733 793.955 505.128 794.346 505.635C794.736 506.143 794.978 506.735 795.072 507.412H793.408C793.281 506.919 792.999 506.481 792.562 506.101C792.129 505.715 791.546 505.522 790.813 505.522C790.164 505.522 789.595 505.692 789.106 506.03C788.622 506.364 788.243 506.836 787.971 507.448C787.703 508.054 787.569 508.766 787.569 509.584C787.569 510.421 787.701 511.15 787.964 511.77C788.232 512.391 788.608 512.873 789.092 513.216C789.581 513.559 790.155 513.731 790.813 513.731C791.245 513.731 791.638 513.655 791.99 513.505C792.343 513.355 792.641 513.138 792.886 512.856C793.13 512.574 793.304 512.236 793.408 511.841H795.072C794.978 512.48 794.745 513.056 794.374 513.568C794.007 514.076 793.521 514.481 792.914 514.781C792.312 515.078 791.612 515.226 790.813 515.226ZM799.056 511.051L799.028 508.992H799.366L804.105 504.168H806.164L801.115 509.274H800.974L799.056 511.051ZM797.505 515V500.558H799.169V515H797.505ZM804.387 515L800.156 509.641L801.341 508.484L806.503 515H804.387ZM808.306 515V504.168H809.971V515H808.306ZM809.153 502.363C808.828 502.363 808.548 502.253 808.313 502.032C808.083 501.811 807.968 501.545 807.968 501.235C807.968 500.925 808.083 500.659 808.313 500.438C808.548 500.217 808.828 500.107 809.153 500.107C809.477 500.107 809.754 500.217 809.985 500.438C810.22 500.659 810.337 500.925 810.337 501.235C810.337 501.545 810.22 501.811 809.985 502.032C809.754 502.253 809.477 502.363 809.153 502.363ZM814.683 508.484V515H813.019V504.168H814.627V505.861H814.768C815.021 505.311 815.407 504.869 815.924 504.535C816.441 504.197 817.109 504.027 817.927 504.027C818.66 504.027 819.302 504.178 819.852 504.479C820.402 504.775 820.83 505.226 821.135 505.833C821.441 506.434 821.594 507.196 821.594 508.117V515H819.929V508.23C819.929 507.379 819.708 506.717 819.267 506.242C818.825 505.762 818.218 505.522 817.447 505.522C816.916 505.522 816.441 505.638 816.023 505.868C815.609 506.098 815.282 506.434 815.043 506.876C814.803 507.318 814.683 507.854 814.683 508.484ZM829.007 519.287C828.203 519.287 827.512 519.184 826.934 518.977C826.355 518.775 825.873 518.507 825.488 518.173C825.107 517.844 824.804 517.492 824.578 517.116L825.904 516.185C826.054 516.382 826.245 516.608 826.475 516.862C826.706 517.12 827.021 517.344 827.42 517.532C827.824 517.724 828.353 517.821 829.007 517.821C829.881 517.821 830.603 517.609 831.172 517.186C831.741 516.763 832.025 516.1 832.025 515.197V512.997H831.884C831.762 513.195 831.588 513.439 831.362 513.731C831.141 514.017 830.821 514.274 830.403 514.499C829.989 514.72 829.43 514.831 828.725 514.831C827.85 514.831 827.065 514.624 826.369 514.21C825.678 513.796 825.131 513.195 824.726 512.405C824.327 511.615 824.127 510.656 824.127 509.528C824.127 508.418 824.322 507.452 824.712 506.63C825.102 505.802 825.645 505.163 826.341 504.711C827.037 504.255 827.841 504.027 828.753 504.027C829.458 504.027 830.018 504.145 830.431 504.38C830.85 504.61 831.169 504.874 831.39 505.17C831.616 505.461 831.79 505.701 831.912 505.889H832.081V504.168H833.689V515.31C833.689 516.241 833.478 516.998 833.055 517.581C832.636 518.169 832.072 518.599 831.362 518.871C830.657 519.149 829.872 519.287 829.007 519.287ZM828.95 513.336C829.618 513.336 830.182 513.183 830.643 512.877C831.104 512.572 831.454 512.132 831.694 511.559C831.933 510.985 832.053 510.299 832.053 509.5C832.053 508.719 831.936 508.031 831.701 507.433C831.466 506.836 831.118 506.369 830.657 506.03C830.196 505.692 829.627 505.522 828.95 505.522C828.245 505.522 827.658 505.701 827.187 506.058C826.722 506.416 826.372 506.895 826.137 507.497C825.906 508.099 825.791 508.766 825.791 509.5C825.791 510.252 825.909 510.917 826.144 511.495C826.384 512.069 826.736 512.52 827.202 512.849C827.672 513.174 828.255 513.336 828.95 513.336ZM842.321 519.062V504.168H843.928V505.889H844.126C844.248 505.701 844.417 505.461 844.634 505.17C844.854 504.874 845.169 504.61 845.578 504.38C845.992 504.145 846.552 504.027 847.257 504.027C848.169 504.027 848.973 504.255 849.669 504.711C850.364 505.167 850.907 505.814 851.297 506.651C851.688 507.488 851.883 508.475 851.883 509.612C851.883 510.76 851.688 511.754 851.297 512.595C850.907 513.432 850.367 514.081 849.676 514.542C848.984 514.998 848.188 515.226 847.285 515.226C846.589 515.226 846.032 515.11 845.614 514.88C845.195 514.645 844.873 514.379 844.648 514.083C844.422 513.782 844.248 513.533 844.126 513.336H843.985V519.062H842.321ZM843.957 509.584C843.957 510.402 844.076 511.124 844.316 511.749C844.556 512.37 844.906 512.856 845.367 513.209C845.828 513.557 846.392 513.731 847.059 513.731C847.755 513.731 848.336 513.547 848.801 513.181C849.271 512.809 849.624 512.311 849.859 511.686C850.099 511.056 850.219 510.355 850.219 509.584C850.219 508.823 850.101 508.136 849.866 507.525C849.636 506.909 849.285 506.423 848.815 506.065C848.35 505.703 847.765 505.522 847.059 505.522C846.382 505.522 845.814 505.694 845.353 506.037C844.892 506.376 844.544 506.851 844.309 507.462C844.074 508.068 843.957 508.776 843.957 509.584ZM856.086 500.558V515H854.421V500.558H856.086ZM862.321 515.254C861.635 515.254 861.012 515.125 860.452 514.866C859.893 514.603 859.449 514.224 859.12 513.731C858.791 513.232 858.626 512.631 858.626 511.925C858.626 511.305 858.748 510.802 858.993 510.416C859.237 510.026 859.564 509.721 859.973 509.5C860.382 509.279 860.833 509.114 861.327 509.006C861.825 508.893 862.326 508.804 862.829 508.738C863.487 508.653 864.021 508.59 864.43 508.548C864.843 508.501 865.144 508.423 865.332 508.315C865.525 508.207 865.621 508.019 865.621 507.751V507.694C865.621 506.999 865.431 506.458 865.05 506.072C864.674 505.687 864.103 505.494 863.337 505.494C862.542 505.494 861.919 505.668 861.468 506.016C861.017 506.364 860.699 506.735 860.516 507.13L858.936 506.566C859.218 505.908 859.594 505.395 860.065 505.029C860.539 504.657 861.057 504.399 861.616 504.253C862.18 504.103 862.735 504.027 863.28 504.027C863.628 504.027 864.028 504.07 864.479 504.154C864.935 504.234 865.375 504.401 865.798 504.655C866.225 504.909 866.58 505.292 866.862 505.804C867.145 506.317 867.286 507.003 867.286 507.864V515H865.621V513.533H865.537C865.424 513.768 865.236 514.02 864.973 514.288C864.709 514.556 864.359 514.784 863.922 514.972C863.485 515.16 862.951 515.254 862.321 515.254ZM862.575 513.759C863.233 513.759 863.788 513.63 864.239 513.371C864.695 513.112 865.038 512.779 865.269 512.37C865.504 511.961 865.621 511.531 865.621 511.079V509.556C865.551 509.641 865.396 509.718 865.156 509.789C864.921 509.855 864.648 509.913 864.338 509.965C864.032 510.012 863.734 510.054 863.442 510.092C863.156 510.125 862.923 510.153 862.744 510.177C862.312 510.233 861.907 510.325 861.531 510.452C861.16 510.574 860.859 510.76 860.629 511.009C860.403 511.253 860.29 511.587 860.29 512.01C860.29 512.588 860.504 513.026 860.932 513.322C861.364 513.613 861.912 513.759 862.575 513.759ZM871.987 508.484V515H870.323V504.168H871.931V505.861H872.072C872.326 505.311 872.711 504.869 873.228 504.535C873.746 504.197 874.413 504.027 875.231 504.027C875.965 504.027 876.606 504.178 877.156 504.479C877.706 504.775 878.134 505.226 878.44 505.833C878.745 506.434 878.898 507.196 878.898 508.117V515H877.234V508.23C877.234 507.379 877.013 506.717 876.571 506.242C876.129 505.762 875.523 505.522 874.752 505.522C874.22 505.522 873.746 505.638 873.327 505.868C872.913 506.098 872.587 506.434 872.347 506.876C872.107 507.318 871.987 507.854 871.987 508.484ZM887.524 515V504.168H889.188V515H887.524ZM888.37 502.363C888.046 502.363 887.766 502.253 887.531 502.032C887.301 501.811 887.186 501.545 887.186 501.235C887.186 500.925 887.301 500.659 887.531 500.438C887.766 500.217 888.046 500.107 888.37 500.107C888.695 500.107 888.972 500.217 889.202 500.438C889.438 500.659 889.555 500.925 889.555 501.235C889.555 501.545 889.438 501.811 889.202 502.032C888.972 502.253 888.695 502.363 888.37 502.363ZM899.909 506.594L898.414 507.017C898.32 506.768 898.181 506.526 897.998 506.291C897.819 506.051 897.575 505.854 897.264 505.699C896.954 505.544 896.557 505.466 896.073 505.466C895.41 505.466 894.857 505.619 894.415 505.924C893.978 506.225 893.76 506.608 893.76 507.074C893.76 507.488 893.91 507.814 894.211 508.054C894.512 508.294 894.982 508.494 895.621 508.653L897.229 509.048C898.198 509.283 898.919 509.643 899.394 510.127C899.869 510.607 900.106 511.225 900.106 511.982C900.106 512.602 899.928 513.157 899.57 513.646C899.218 514.135 898.724 514.52 898.089 514.803C897.455 515.085 896.717 515.226 895.875 515.226C894.77 515.226 893.856 514.986 893.132 514.506C892.408 514.027 891.95 513.326 891.757 512.405L893.337 512.01C893.487 512.593 893.771 513.03 894.19 513.322C894.613 513.613 895.165 513.759 895.847 513.759C896.623 513.759 897.239 513.594 897.695 513.265C898.155 512.931 898.386 512.532 898.386 512.066C898.386 511.69 898.254 511.375 897.991 511.122C897.727 510.863 897.323 510.67 896.778 510.543L894.973 510.12C893.981 509.885 893.252 509.521 892.787 509.027C892.326 508.529 892.095 507.906 892.095 507.158C892.095 506.547 892.267 506.007 892.61 505.537C892.958 505.066 893.431 504.697 894.028 504.429C894.629 504.161 895.311 504.027 896.073 504.027C897.145 504.027 897.986 504.263 898.597 504.733C899.213 505.203 899.65 505.823 899.909 506.594ZM908.196 515V504.168H909.804V505.804H909.917C910.114 505.269 910.472 504.834 910.989 504.5C911.506 504.166 912.089 503.999 912.738 503.999C912.86 503.999 913.013 504.002 913.196 504.006C913.379 504.011 913.518 504.018 913.612 504.027V505.72C913.556 505.706 913.426 505.685 913.224 505.656C913.027 505.623 912.818 505.607 912.597 505.607C912.07 505.607 911.6 505.718 911.186 505.938C910.777 506.155 910.453 506.456 910.213 506.841C909.978 507.222 909.861 507.657 909.861 508.146V515H908.196ZM919.797 515.226C918.753 515.226 917.853 514.995 917.096 514.535C916.344 514.069 915.763 513.42 915.354 512.588C914.95 511.751 914.747 510.778 914.747 509.669C914.747 508.559 914.95 507.582 915.354 506.735C915.763 505.884 916.332 505.222 917.06 504.747C917.794 504.267 918.649 504.027 919.627 504.027C920.191 504.027 920.749 504.121 921.299 504.31C921.849 504.498 922.349 504.803 922.801 505.226C923.252 505.645 923.612 506.199 923.88 506.89C924.148 507.582 924.281 508.432 924.281 509.443V510.148H915.932V508.71H922.589C922.589 508.099 922.467 507.553 922.222 507.074C921.983 506.594 921.639 506.216 921.193 505.938C920.751 505.661 920.229 505.522 919.627 505.522C918.964 505.522 918.391 505.687 917.907 506.016C917.427 506.34 917.058 506.764 916.8 507.285C916.541 507.807 916.412 508.367 916.412 508.964V509.923C916.412 510.741 916.553 511.434 916.835 512.003C917.122 512.567 917.519 512.997 918.027 513.293C918.534 513.585 919.124 513.731 919.797 513.731C920.234 513.731 920.629 513.67 920.981 513.547C921.339 513.42 921.646 513.232 921.905 512.983C922.164 512.729 922.363 512.414 922.504 512.038L924.112 512.49C923.943 513.035 923.659 513.514 923.259 513.928C922.859 514.337 922.366 514.657 921.778 514.887C921.19 515.113 920.53 515.226 919.797 515.226ZM930 515.254C929.314 515.254 928.691 515.125 928.132 514.866C927.572 514.603 927.128 514.224 926.799 513.731C926.47 513.232 926.305 512.631 926.305 511.925C926.305 511.305 926.428 510.802 926.672 510.416C926.916 510.026 927.243 509.721 927.652 509.5C928.061 509.279 928.513 509.114 929.006 509.006C929.504 508.893 930.005 508.804 930.508 508.738C931.166 508.653 931.7 508.59 932.109 508.548C932.523 508.501 932.824 508.423 933.012 508.315C933.204 508.207 933.301 508.019 933.301 507.751V507.694C933.301 506.999 933.11 506.458 932.73 506.072C932.353 505.687 931.782 505.494 931.016 505.494C930.221 505.494 929.599 505.668 929.147 506.016C928.696 506.364 928.379 506.735 928.195 507.13L926.616 506.566C926.898 505.908 927.274 505.395 927.744 505.029C928.219 504.657 928.736 504.399 929.295 504.253C929.859 504.103 930.414 504.027 930.96 504.027C931.307 504.027 931.707 504.07 932.158 504.154C932.614 504.234 933.054 504.401 933.477 504.655C933.905 504.909 934.26 505.292 934.542 505.804C934.824 506.317 934.965 507.003 934.965 507.864V515H933.301V513.533H933.216C933.103 513.768 932.915 514.02 932.652 514.288C932.389 514.556 932.038 514.784 931.601 514.972C931.164 515.16 930.63 515.254 930 515.254ZM930.254 513.759C930.912 513.759 931.467 513.63 931.919 513.371C932.375 513.112 932.718 512.779 932.948 512.37C933.183 511.961 933.301 511.531 933.301 511.079V509.556C933.23 509.641 933.075 509.718 932.835 509.789C932.6 509.855 932.328 509.913 932.017 509.965C931.712 510.012 931.413 510.054 931.122 510.092C930.835 510.125 930.602 510.153 930.424 510.177C929.991 510.233 929.587 510.325 929.211 510.452C928.839 510.574 928.538 510.76 928.308 511.009C928.082 511.253 927.97 511.587 927.97 512.01C927.97 512.588 928.183 513.026 928.611 513.322C929.044 513.613 929.591 513.759 930.254 513.759ZM942.092 515.226C941.19 515.226 940.393 514.998 939.702 514.542C939.011 514.081 938.47 513.432 938.08 512.595C937.69 511.754 937.495 510.76 937.495 509.612C937.495 508.475 937.69 507.488 938.08 506.651C938.47 505.814 939.013 505.167 939.709 504.711C940.405 504.255 941.209 504.027 942.121 504.027C942.826 504.027 943.383 504.145 943.792 504.38C944.206 504.61 944.521 504.874 944.737 505.17C944.958 505.461 945.129 505.701 945.252 505.889H945.393V500.558H947.057V515H945.449V513.336H945.252C945.129 513.533 944.956 513.782 944.73 514.083C944.504 514.379 944.182 514.645 943.764 514.88C943.345 515.11 942.788 515.226 942.092 515.226ZM942.318 513.731C942.986 513.731 943.55 513.557 944.011 513.209C944.471 512.856 944.822 512.37 945.061 511.749C945.301 511.124 945.421 510.402 945.421 509.584C945.421 508.776 945.303 508.068 945.068 507.462C944.833 506.851 944.485 506.376 944.025 506.037C943.564 505.694 942.995 505.522 942.318 505.522C941.613 505.522 941.025 505.703 940.555 506.065C940.09 506.423 939.74 506.909 939.504 507.525C939.274 508.136 939.159 508.823 939.159 509.584C939.159 510.355 939.276 511.056 939.512 511.686C939.751 512.311 940.104 512.809 940.569 513.181C941.039 513.547 941.622 513.731 942.318 513.731ZM951.408 519.062C951.126 519.062 950.874 519.038 950.653 518.991C950.432 518.949 950.28 518.907 950.195 518.864L950.618 517.398C951.022 517.501 951.38 517.539 951.69 517.51C952 517.482 952.275 517.344 952.515 517.094C952.759 516.85 952.983 516.453 953.185 515.903L953.495 515.056L949.49 504.168H951.295L954.285 512.8H954.398L957.388 504.168H959.193L954.595 516.58C954.388 517.139 954.132 517.602 953.827 517.969C953.521 518.34 953.166 518.615 952.762 518.794C952.362 518.972 951.911 519.062 951.408 519.062ZM971.685 504.168V505.579H966.072V504.168H971.685ZM967.708 501.573H969.372V511.897C969.372 512.367 969.44 512.72 969.577 512.955C969.718 513.185 969.896 513.34 970.113 513.42C970.334 513.496 970.566 513.533 970.811 513.533C970.994 513.533 971.145 513.524 971.262 513.505C971.38 513.482 971.474 513.463 971.544 513.449L971.883 514.944C971.77 514.986 971.612 515.028 971.41 515.071C971.208 515.118 970.952 515.141 970.642 515.141C970.171 515.141 969.711 515.04 969.259 514.838C968.813 514.636 968.441 514.328 968.145 513.914C967.854 513.5 967.708 512.978 967.708 512.349V501.573ZM978.473 515.226C977.495 515.226 976.637 514.993 975.899 514.528C975.165 514.062 974.592 513.411 974.178 512.574C973.769 511.737 973.565 510.76 973.565 509.641C973.565 508.512 973.769 507.527 974.178 506.686C974.592 505.844 975.165 505.191 975.899 504.726C976.637 504.26 977.495 504.027 978.473 504.027C979.45 504.027 980.306 504.26 981.039 504.726C981.777 505.191 982.351 505.844 982.76 506.686C983.174 507.527 983.381 508.512 983.381 509.641C983.381 510.76 983.174 511.737 982.76 512.574C982.351 513.411 981.777 514.062 981.039 514.528C980.306 514.993 979.45 515.226 978.473 515.226ZM978.473 513.731C979.215 513.731 979.826 513.54 980.306 513.159C980.786 512.779 981.14 512.278 981.371 511.657C981.601 511.037 981.716 510.365 981.716 509.641C981.716 508.917 981.601 508.242 981.371 507.617C981.14 506.992 980.786 506.486 980.306 506.101C979.826 505.715 979.215 505.522 978.473 505.522C977.73 505.522 977.119 505.715 976.639 506.101C976.16 506.486 975.805 506.992 975.574 507.617C975.344 508.242 975.229 508.917 975.229 509.641C975.229 510.365 975.344 511.037 975.574 511.657C975.805 512.278 976.16 512.779 976.639 513.159C977.119 513.54 977.73 513.731 978.473 513.731ZM1000.36 504.168L996.358 515H994.665L990.66 504.168H992.465L995.455 512.8H995.568L998.558 504.168H1000.36ZM1002.56 515V504.168H1004.22V515H1002.56ZM1003.41 502.363C1003.08 502.363 1002.8 502.253 1002.57 502.032C1002.34 501.811 1002.22 501.545 1002.22 501.235C1002.22 500.925 1002.34 500.659 1002.57 500.438C1002.8 500.217 1003.08 500.107 1003.41 500.107C1003.73 500.107 1004.01 500.217 1004.24 500.438C1004.47 500.659 1004.59 500.925 1004.59 501.235C1004.59 501.545 1004.47 501.811 1004.24 502.032C1004.01 502.253 1003.73 502.363 1003.41 502.363ZM1011.81 515.226C1010.77 515.226 1009.87 514.995 1009.11 514.535C1008.36 514.069 1007.78 513.42 1007.37 512.588C1006.97 511.751 1006.76 510.778 1006.76 509.669C1006.76 508.559 1006.97 507.582 1007.37 506.735C1007.78 505.884 1008.35 505.222 1009.08 504.747C1009.81 504.267 1010.67 504.027 1011.64 504.027C1012.21 504.027 1012.77 504.121 1013.32 504.31C1013.87 504.498 1014.37 504.803 1014.82 505.226C1015.27 505.645 1015.63 506.199 1015.9 506.89C1016.16 507.582 1016.3 508.432 1016.3 509.443V510.148H1007.95V508.71H1014.61C1014.61 508.099 1014.48 507.553 1014.24 507.074C1014 506.594 1013.66 506.216 1013.21 505.938C1012.77 505.661 1012.25 505.522 1011.64 505.522C1010.98 505.522 1010.41 505.687 1009.92 506.016C1009.44 506.34 1009.07 506.764 1008.82 507.285C1008.56 507.807 1008.43 508.367 1008.43 508.964V509.923C1008.43 510.741 1008.57 511.434 1008.85 512.003C1009.14 512.567 1009.54 512.997 1010.04 513.293C1010.55 513.585 1011.14 513.731 1011.81 513.731C1012.25 513.731 1012.65 513.67 1013 513.547C1013.36 513.42 1013.66 513.232 1013.92 512.983C1014.18 512.729 1014.38 512.414 1014.52 512.038L1016.13 512.49C1015.96 513.035 1015.68 513.514 1015.28 513.928C1014.88 514.337 1014.38 514.657 1013.79 514.887C1013.21 515.113 1012.55 515.226 1011.81 515.226ZM1021.28 515L1017.98 504.168H1019.73L1022.07 512.461H1022.19L1024.5 504.168H1026.28L1028.56 512.433H1028.67L1031.02 504.168H1032.76L1029.46 515H1027.83L1025.46 506.679H1025.29L1022.92 515H1021.28ZM1034.7 515.113C1034.36 515.113 1034.06 514.988 1033.81 514.739C1033.56 514.49 1033.43 514.191 1033.43 513.844C1033.43 513.496 1033.56 513.197 1033.81 512.948C1034.06 512.699 1034.36 512.574 1034.7 512.574C1035.05 512.574 1035.35 512.699 1035.6 512.948C1035.85 513.197 1035.97 513.496 1035.97 513.844C1035.97 514.074 1035.91 514.285 1035.8 514.478C1035.68 514.671 1035.53 514.826 1035.34 514.944C1035.15 515.056 1034.94 515.113 1034.7 515.113Z" fill="#475569"/>
<path d="M1207.2 570.911H520.8C511.522 570.911 504 578.69 504 588.287V623.038C504 632.634 511.522 640.413 520.8 640.413H1207.2C1216.48 640.413 1224 632.634 1224 623.038V588.287C1224 578.69 1216.48 570.911 1207.2 570.911Z" fill="white" stroke="#E2E8F0" stroke-width="1.24111"/>
<path d="M524.523 619.062V604.168H526.131V605.889H526.328C526.451 605.701 526.62 605.461 526.836 605.17C527.057 604.874 527.372 604.61 527.781 604.38C528.195 604.145 528.754 604.027 529.459 604.027C530.371 604.027 531.175 604.255 531.871 604.711C532.567 605.167 533.11 605.814 533.5 606.651C533.89 607.488 534.085 608.475 534.085 609.612C534.085 610.76 533.89 611.754 533.5 612.595C533.11 613.432 532.569 614.081 531.878 614.542C531.187 614.998 530.39 615.226 529.488 615.226C528.792 615.226 528.235 615.11 527.816 614.88C527.398 614.645 527.076 614.379 526.85 614.083C526.625 613.782 526.451 613.533 526.328 613.336H526.187V619.062H524.523ZM526.159 609.584C526.159 610.402 526.279 611.124 526.519 611.749C526.759 612.37 527.109 612.856 527.57 613.209C528.03 613.557 528.594 613.731 529.262 613.731C529.958 613.731 530.538 613.547 531.004 613.181C531.474 612.809 531.826 612.311 532.062 611.686C532.301 611.056 532.421 610.355 532.421 609.584C532.421 608.823 532.304 608.136 532.069 607.525C531.838 606.909 531.488 606.423 531.018 606.065C530.552 605.703 529.967 605.522 529.262 605.522C528.585 605.522 528.016 605.694 527.555 606.037C527.095 606.376 526.747 606.851 526.512 607.462C526.277 608.068 526.159 608.776 526.159 609.584ZM539.811 615.254C539.125 615.254 538.502 615.125 537.943 614.866C537.383 614.603 536.939 614.224 536.61 613.731C536.281 613.232 536.116 612.631 536.116 611.925C536.116 611.305 536.239 610.802 536.483 610.416C536.727 610.026 537.054 609.721 537.463 609.5C537.872 609.279 538.323 609.114 538.817 609.006C539.315 608.893 539.816 608.804 540.319 608.738C540.977 608.653 541.511 608.59 541.92 608.548C542.334 608.501 542.634 608.423 542.823 608.315C543.015 608.207 543.112 608.019 543.112 607.751V607.694C543.112 606.999 542.921 606.458 542.54 606.072C542.164 605.687 541.593 605.494 540.827 605.494C540.032 605.494 539.409 605.668 538.958 606.016C538.507 606.364 538.19 606.735 538.006 607.13L536.427 606.566C536.709 605.908 537.085 605.395 537.555 605.029C538.03 604.657 538.547 604.399 539.106 604.253C539.67 604.103 540.225 604.027 540.77 604.027C541.118 604.027 541.518 604.07 541.969 604.154C542.425 604.234 542.865 604.401 543.288 604.655C543.716 604.909 544.071 605.292 544.353 605.804C544.635 606.317 544.776 607.003 544.776 607.864V615H543.112V613.533H543.027C542.914 613.768 542.726 614.02 542.463 614.288C542.2 614.556 541.849 614.784 541.412 614.972C540.975 615.16 540.441 615.254 539.811 615.254ZM540.065 613.759C540.723 613.759 541.278 613.63 541.729 613.371C542.186 613.112 542.529 612.779 542.759 612.37C542.994 611.961 543.112 611.531 543.112 611.079V609.556C543.041 609.641 542.886 609.718 542.646 609.789C542.411 609.855 542.138 609.913 541.828 609.965C541.523 610.012 541.224 610.054 540.933 610.092C540.646 610.125 540.413 610.153 540.235 610.177C539.802 610.233 539.398 610.325 539.022 610.452C538.65 610.574 538.349 610.76 538.119 611.009C537.893 611.253 537.781 611.587 537.781 612.01C537.781 612.588 537.994 613.026 538.422 613.322C538.855 613.613 539.402 613.759 540.065 613.759ZM552.214 615.226C551.198 615.226 550.324 614.986 549.59 614.506C548.857 614.027 548.293 613.366 547.898 612.525C547.503 611.683 547.306 610.722 547.306 609.641C547.306 608.541 547.508 607.57 547.912 606.728C548.321 605.882 548.89 605.222 549.619 604.747C550.352 604.267 551.208 604.027 552.186 604.027C552.947 604.027 553.633 604.168 554.245 604.451C554.856 604.733 555.356 605.128 555.747 605.635C556.137 606.143 556.379 606.735 556.473 607.412H554.809C554.682 606.919 554.4 606.481 553.963 606.101C553.53 605.715 552.947 605.522 552.214 605.522C551.565 605.522 550.996 605.692 550.507 606.03C550.023 606.364 549.645 606.836 549.372 607.448C549.104 608.054 548.97 608.766 548.97 609.584C548.97 610.421 549.102 611.15 549.365 611.77C549.633 612.391 550.009 612.873 550.493 613.216C550.982 613.559 551.556 613.731 552.214 613.731C552.646 613.731 553.039 613.655 553.391 613.505C553.744 613.355 554.042 613.138 554.287 612.856C554.531 612.574 554.705 612.236 554.809 611.841H556.473C556.379 612.48 556.146 613.056 555.775 613.568C555.408 614.076 554.922 614.481 554.315 614.781C553.713 615.078 553.013 615.226 552.214 615.226ZM560.457 611.051L560.429 608.992H560.768L565.506 604.168H567.565L562.516 609.274H562.375L560.457 611.051ZM558.906 615V600.558H560.57V615H558.906ZM565.788 615L561.557 609.641L562.742 608.484L567.904 615H565.788ZM577.38 606.594L575.885 607.017C575.791 606.768 575.652 606.526 575.469 606.291C575.29 606.051 575.046 605.854 574.735 605.699C574.425 605.544 574.028 605.466 573.544 605.466C572.881 605.466 572.328 605.619 571.886 605.924C571.449 606.225 571.231 606.608 571.231 607.074C571.231 607.488 571.381 607.814 571.682 608.054C571.983 608.294 572.453 608.494 573.092 608.653L574.7 609.048C575.668 609.283 576.39 609.643 576.865 610.127C577.34 610.607 577.577 611.225 577.577 611.982C577.577 612.602 577.399 613.157 577.041 613.646C576.689 614.135 576.195 614.52 575.56 614.803C574.926 615.085 574.188 615.226 573.346 615.226C572.241 615.226 571.327 614.986 570.603 614.506C569.879 614.027 569.421 613.326 569.228 612.405L570.807 612.01C570.958 612.593 571.242 613.03 571.661 613.322C572.084 613.613 572.636 613.759 573.318 613.759C574.094 613.759 574.709 613.594 575.165 613.265C575.626 612.931 575.857 612.532 575.857 612.066C575.857 611.69 575.725 611.375 575.462 611.122C575.198 610.863 574.794 610.67 574.249 610.543L572.443 610.12C571.452 609.885 570.723 609.521 570.257 609.027C569.797 608.529 569.566 607.906 569.566 607.158C569.566 606.547 569.738 606.007 570.081 605.537C570.429 605.066 570.901 604.697 571.499 604.429C572.1 604.161 572.782 604.027 573.544 604.027C574.615 604.027 575.457 604.263 576.068 604.733C576.684 605.203 577.121 605.823 577.38 606.594ZM581.295 615.113C580.947 615.113 580.649 614.988 580.4 614.739C580.15 614.49 580.026 614.191 580.026 613.844C580.026 613.496 580.15 613.197 580.4 612.948C580.649 612.699 580.947 612.574 581.295 612.574C581.643 612.574 581.942 612.699 582.191 612.948C582.44 613.197 582.565 613.496 582.565 613.844C582.565 614.074 582.506 614.285 582.388 614.478C582.275 614.671 582.123 614.826 581.93 614.944C581.742 615.056 581.53 615.113 581.295 615.113ZM585.551 615V604.168H587.159V605.861H587.3C587.525 605.283 587.89 604.834 588.393 604.514C588.896 604.19 589.5 604.027 590.205 604.027C590.92 604.027 591.514 604.19 591.989 604.514C592.469 604.834 592.842 605.283 593.11 605.861H593.223C593.501 605.301 593.917 604.857 594.471 604.528C595.026 604.194 595.691 604.027 596.467 604.027C597.436 604.027 598.228 604.331 598.844 604.937C599.459 605.539 599.767 606.477 599.767 607.751V615H598.103V607.751C598.103 606.952 597.884 606.38 597.447 606.037C597.01 605.694 596.495 605.522 595.903 605.522C595.141 605.522 594.551 605.753 594.133 606.213C593.715 606.67 593.505 607.248 593.505 607.948V615H591.813V607.582C591.813 606.966 591.613 606.47 591.214 606.094C590.814 605.713 590.299 605.522 589.669 605.522C589.237 605.522 588.832 605.638 588.456 605.868C588.085 606.098 587.784 606.418 587.554 606.827C587.328 607.231 587.215 607.699 587.215 608.23V615H585.551ZM607.521 604.168V605.579H601.908V604.168H607.521ZM603.544 601.573H605.208V611.897C605.208 612.367 605.276 612.72 605.412 612.955C605.553 613.185 605.732 613.34 605.948 613.42C606.169 613.496 606.402 613.533 606.646 613.533C606.83 613.533 606.98 613.524 607.098 613.505C607.215 613.482 607.309 613.463 607.38 613.449L607.718 614.944C607.605 614.986 607.448 615.028 607.246 615.071C607.044 615.118 606.787 615.141 606.477 615.141C606.007 615.141 605.546 615.04 605.095 614.838C604.648 614.636 604.277 614.328 603.981 613.914C603.689 613.5 603.544 612.978 603.544 612.349V601.573ZM615.13 599.881L610.475 617.172H608.952L613.606 599.881H615.13ZM620.29 615.254C619.603 615.254 618.98 615.125 618.421 614.866C617.862 614.603 617.417 614.224 617.088 613.731C616.759 613.232 616.595 612.631 616.595 611.925C616.595 611.305 616.717 610.802 616.961 610.416C617.206 610.026 617.532 609.721 617.941 609.5C618.35 609.279 618.802 609.114 619.295 609.006C619.794 608.893 620.294 608.804 620.797 608.738C621.456 608.653 621.989 608.59 622.398 608.548C622.812 608.501 623.113 608.423 623.301 608.315C623.494 608.207 623.59 608.019 623.59 607.751V607.694C623.59 606.999 623.4 606.458 623.019 606.072C622.643 605.687 622.071 605.494 621.305 605.494C620.511 605.494 619.888 605.668 619.436 606.016C618.985 606.364 618.668 606.735 618.484 607.13L616.905 606.566C617.187 605.908 617.563 605.395 618.033 605.029C618.508 604.657 619.025 604.399 619.585 604.253C620.149 604.103 620.703 604.027 621.249 604.027C621.597 604.027 621.996 604.07 622.448 604.154C622.904 604.234 623.343 604.401 623.766 604.655C624.194 604.909 624.549 605.292 624.831 605.804C625.113 606.317 625.254 607.003 625.254 607.864V615H623.59V613.533H623.505C623.392 613.768 623.204 614.02 622.941 614.288C622.678 614.556 622.328 614.784 621.89 614.972C621.453 615.16 620.92 615.254 620.29 615.254ZM620.544 613.759C621.202 613.759 621.756 613.63 622.208 613.371C622.664 613.112 623.007 612.779 623.237 612.37C623.472 611.961 623.59 611.531 623.59 611.079V609.556C623.519 609.641 623.364 609.718 623.125 609.789C622.889 609.855 622.617 609.913 622.307 609.965C622.001 610.012 621.702 610.054 621.411 610.092C621.124 610.125 620.891 610.153 620.713 610.177C620.28 610.233 619.876 610.325 619.5 610.452C619.129 610.574 618.828 610.76 618.597 611.009C618.372 611.253 618.259 611.587 618.259 612.01C618.259 612.588 618.473 613.026 618.901 613.322C619.333 613.613 619.881 613.759 620.544 613.759ZM628.517 615V600.558H630.182V605.889H630.323C630.445 605.701 630.614 605.461 630.83 605.17C631.051 604.874 631.366 604.61 631.775 604.38C632.189 604.145 632.748 604.027 633.454 604.027C634.366 604.027 635.17 604.255 635.865 604.711C636.561 605.167 637.104 605.814 637.494 606.651C637.884 607.488 638.08 608.475 638.08 609.612C638.08 610.76 637.884 611.754 637.494 612.595C637.104 613.432 636.563 614.081 635.872 614.542C635.181 614.998 634.384 615.226 633.482 615.226C632.786 615.226 632.229 615.11 631.811 614.88C631.392 614.645 631.07 614.379 630.844 614.083C630.619 613.782 630.445 613.533 630.323 613.336H630.125V615H628.517ZM630.153 609.584C630.153 610.402 630.273 611.124 630.513 611.749C630.753 612.37 631.103 612.856 631.564 613.209C632.024 613.557 632.589 613.731 633.256 613.731C633.952 613.731 634.533 613.547 634.998 613.181C635.468 612.809 635.821 612.311 636.056 611.686C636.295 611.056 636.415 610.355 636.415 609.584C636.415 608.823 636.298 608.136 636.063 607.525C635.832 606.909 635.482 606.423 635.012 606.065C634.547 605.703 633.961 605.522 633.256 605.522C632.579 605.522 632.01 605.694 631.55 606.037C631.089 606.376 630.741 606.851 630.506 607.462C630.271 608.068 630.153 608.776 630.153 609.584ZM645.026 615.226C644.01 615.226 643.136 614.986 642.402 614.506C641.669 614.027 641.105 613.366 640.71 612.525C640.315 611.683 640.118 610.722 640.118 609.641C640.118 608.541 640.32 607.57 640.724 606.728C641.133 605.882 641.702 605.222 642.43 604.747C643.164 604.267 644.019 604.027 644.997 604.027C645.759 604.027 646.445 604.168 647.056 604.451C647.668 604.733 648.168 605.128 648.558 605.635C648.949 606.143 649.191 606.735 649.285 607.412H647.621C647.494 606.919 647.212 606.481 646.774 606.101C646.342 605.715 645.759 605.522 645.026 605.522C644.377 605.522 643.808 605.692 643.319 606.03C642.835 606.364 642.456 606.836 642.184 607.448C641.916 608.054 641.782 608.766 641.782 609.584C641.782 610.421 641.913 611.15 642.177 611.77C642.445 612.391 642.821 612.873 643.305 613.216C643.794 613.559 644.367 613.731 645.026 613.731C645.458 613.731 645.851 613.655 646.203 613.505C646.556 613.355 646.854 613.138 647.099 612.856C647.343 612.574 647.517 612.236 647.621 611.841H649.285C649.191 612.48 648.958 613.056 648.587 613.568C648.22 614.076 647.733 614.481 647.127 614.781C646.525 615.078 645.825 615.226 645.026 615.226ZM655.808 615.226C654.905 615.226 654.108 614.998 653.417 614.542C652.726 614.081 652.185 613.432 651.795 612.595C651.405 611.754 651.21 610.76 651.21 609.612C651.21 608.475 651.405 607.488 651.795 606.651C652.185 605.814 652.728 605.167 653.424 604.711C654.12 604.255 654.924 604.027 655.836 604.027C656.541 604.027 657.098 604.145 657.507 604.38C657.921 604.61 658.236 604.874 658.452 605.17C658.673 605.461 658.845 605.701 658.967 605.889H659.108V600.558H660.772V615H659.164V613.336H658.967C658.845 613.533 658.671 613.782 658.445 614.083C658.219 614.379 657.897 614.645 657.479 614.88C657.061 615.11 656.503 615.226 655.808 615.226ZM656.033 613.731C656.701 613.731 657.265 613.557 657.726 613.209C658.186 612.856 658.537 612.37 658.776 611.749C659.016 611.124 659.136 610.402 659.136 609.584C659.136 608.776 659.019 608.068 658.784 607.462C658.548 606.851 658.201 606.376 657.74 606.037C657.279 605.694 656.71 605.522 656.033 605.522C655.328 605.522 654.741 605.703 654.27 606.065C653.805 606.423 653.455 606.909 653.22 607.525C652.989 608.136 652.874 608.823 652.874 609.584C652.874 610.355 652.992 611.056 653.227 611.686C653.467 612.311 653.819 612.809 654.285 613.181C654.755 613.547 655.338 613.731 656.033 613.731ZM670.257 608.033V609.584H663.938V608.033H670.257ZM678.234 600.558V615H676.485V602.391H676.401L672.875 604.733V602.956L676.485 600.558H678.234ZM682.388 615V613.731L687.155 608.512C687.714 607.901 688.175 607.37 688.537 606.919C688.899 606.463 689.167 606.035 689.341 605.635C689.519 605.231 689.609 604.808 689.609 604.366C689.609 603.858 689.486 603.419 689.242 603.047C689.002 602.676 688.673 602.389 688.255 602.187C687.836 601.985 687.366 601.884 686.844 601.884C686.29 601.884 685.805 601.999 685.392 602.229C684.983 602.455 684.665 602.772 684.44 603.181C684.219 603.59 684.108 604.07 684.108 604.62H682.444C682.444 603.774 682.639 603.031 683.029 602.391C683.419 601.752 683.951 601.254 684.623 600.896C685.3 600.539 686.059 600.361 686.901 600.361C687.747 600.361 688.497 600.539 689.15 600.896C689.804 601.254 690.316 601.736 690.687 602.342C691.059 602.949 691.245 603.623 691.245 604.366C691.245 604.897 691.148 605.417 690.955 605.924C690.767 606.427 690.438 606.989 689.968 607.61C689.503 608.226 688.856 608.978 688.029 609.866L684.785 613.336V613.449H691.498V615H682.388ZM699.291 615.197C698.36 615.197 697.53 615.038 696.801 614.718C696.077 614.398 695.502 613.954 695.074 613.385C694.651 612.812 694.42 612.146 694.383 611.389H696.16C696.197 611.855 696.357 612.257 696.639 612.595C696.921 612.929 697.29 613.188 697.746 613.371C698.202 613.554 698.708 613.646 699.262 613.646C699.883 613.646 700.433 613.538 700.913 613.322C701.392 613.105 701.768 612.805 702.041 612.419C702.314 612.034 702.45 611.587 702.45 611.079C702.45 610.548 702.318 610.08 702.055 609.676C701.792 609.267 701.406 608.947 700.898 608.717C700.391 608.487 699.77 608.371 699.037 608.371H697.88V606.82H699.037C699.61 606.82 700.113 606.717 700.546 606.51C700.983 606.303 701.324 606.011 701.568 605.635C701.818 605.259 701.942 604.817 701.942 604.31C701.942 603.821 701.834 603.395 701.618 603.033C701.401 602.671 701.096 602.389 700.701 602.187C700.311 601.985 699.85 601.884 699.319 601.884C698.821 601.884 698.35 601.975 697.909 602.159C697.471 602.337 697.114 602.598 696.837 602.941C696.559 603.28 696.409 603.689 696.385 604.168H694.693C694.721 603.412 694.949 602.749 695.377 602.18C695.805 601.606 696.364 601.16 697.055 600.84C697.751 600.52 698.515 600.361 699.347 600.361C700.24 600.361 701.007 600.542 701.646 600.904C702.285 601.261 702.777 601.733 703.12 602.321C703.463 602.909 703.635 603.543 703.635 604.225C703.635 605.038 703.421 605.732 702.993 606.305C702.57 606.879 701.994 607.276 701.265 607.497V607.61C702.177 607.76 702.889 608.148 703.402 608.773C703.914 609.394 704.17 610.162 704.17 611.079C704.17 611.864 703.957 612.569 703.529 613.195C703.106 613.815 702.527 614.304 701.794 614.662C701.061 615.019 700.226 615.197 699.291 615.197ZM706.716 612.038V610.6L713.063 600.558H714.106V602.786H713.401L708.606 610.374V610.487H717.153V612.038H706.716ZM713.514 615V611.601V610.931V600.558H715.178V615H713.514Z" fill="#64748B"/>
<path d="M1188 583.322H1087.2C1080.57 583.322 1075.2 588.879 1075.2 595.733V615.591C1075.2 622.446 1080.57 628.002 1087.2 628.002H1188C1194.63 628.002 1200 622.446 1200 615.591V595.733C1200 588.879 1194.63 583.322 1188 583.322Z" fill="#F1F5F9" stroke="#E2E8F0" stroke-width="1.24111"/>
<path d="M1111.2 595.733H1096.8C1095.47 595.733 1094.4 596.845 1094.4 598.216V608.144C1094.4 609.515 1095.47 610.627 1096.8 610.627H1111.2C1112.53 610.627 1113.6 609.515 1113.6 608.144V598.216C1113.6 596.845 1112.53 595.733 1111.2 595.733Z" stroke="#64748B" stroke-width="2.48222"/>
<path d="M1116 593.251H1101.6C1100.27 593.251 1099.2 594.362 1099.2 595.733V605.662C1099.2 607.033 1100.27 608.144 1101.6 608.144H1116C1117.33 608.144 1118.4 607.033 1118.4 605.662V595.733C1118.4 594.362 1117.33 593.251 1116 593.251Z" stroke="#64748B" stroke-width="2.48222"/>
<path d="M1140.81 604.521H1138.14C1138.15 604.167 1138.11 603.854 1138.01 603.583C1137.91 603.307 1137.76 603.073 1137.56 602.879C1137.37 602.686 1137.13 602.54 1136.85 602.441C1136.57 602.338 1136.26 602.287 1135.91 602.287C1135.24 602.287 1134.62 602.456 1134.05 602.793C1133.49 603.13 1133.01 603.62 1132.63 604.262C1132.24 604.899 1131.97 605.67 1131.83 606.575C1131.68 607.447 1131.69 608.178 1131.85 608.766C1132.01 609.354 1132.29 609.798 1132.7 610.099C1133.11 610.395 1133.63 610.543 1134.24 610.543C1134.62 610.543 1134.98 610.496 1135.32 610.401C1135.66 610.302 1135.97 610.162 1136.25 609.981C1136.53 609.796 1136.78 609.572 1136.99 609.309C1137.2 609.046 1137.37 608.747 1137.49 608.414H1140.17C1140.01 608.994 1139.74 609.554 1139.38 610.092C1139.03 610.631 1138.59 611.113 1138.07 611.536C1137.55 611.956 1136.95 612.289 1136.29 612.536C1135.62 612.783 1134.89 612.906 1134.1 612.906C1132.95 612.906 1131.96 612.643 1131.14 612.116C1130.32 611.59 1129.73 610.831 1129.37 609.839C1129.01 608.848 1128.94 607.653 1129.17 606.255C1129.39 604.901 1129.83 603.753 1130.49 602.812C1131.16 601.865 1131.96 601.148 1132.91 600.658C1133.86 600.169 1134.87 599.924 1135.95 599.924C1136.71 599.924 1137.39 600.027 1138 600.232C1138.6 600.438 1139.12 600.738 1139.55 601.133C1139.98 601.524 1140.31 602.003 1140.53 602.571C1140.74 603.139 1140.84 603.788 1140.81 604.521ZM1145.62 612.918C1144.65 612.918 1143.85 612.713 1143.22 612.301C1142.59 611.886 1142.14 611.31 1141.88 610.574C1141.63 609.833 1141.58 608.972 1141.74 607.988C1141.89 607.018 1142.22 606.168 1142.71 605.44C1143.21 604.712 1143.83 604.146 1144.6 603.743C1145.36 603.336 1146.21 603.132 1147.17 603.132C1148.13 603.132 1148.93 603.34 1149.56 603.756C1150.2 604.167 1150.64 604.743 1150.9 605.483C1151.16 606.224 1151.21 607.085 1151.05 608.069C1150.89 609.035 1150.56 609.883 1150.06 610.611C1149.56 611.339 1148.94 611.907 1148.18 612.314C1147.42 612.717 1146.57 612.918 1145.62 612.918ZM1145.88 610.882C1146.32 610.882 1146.72 610.757 1147.06 610.506C1147.4 610.251 1147.69 609.905 1147.91 609.469C1148.14 609.029 1148.31 608.531 1148.4 607.976C1148.49 607.429 1148.49 606.944 1148.41 606.52C1148.34 606.092 1148.17 605.755 1147.92 605.508C1147.67 605.261 1147.33 605.138 1146.9 605.138C1146.46 605.138 1146.06 605.265 1145.72 605.52C1145.37 605.771 1145.09 606.117 1144.86 606.557C1144.63 606.997 1144.48 607.497 1144.39 608.056C1144.3 608.599 1144.29 609.085 1144.37 609.512C1144.44 609.936 1144.6 610.271 1144.85 610.518C1145.11 610.761 1145.45 610.882 1145.88 610.882ZM1151.41 616.287L1153.59 603.256H1156.18L1155.92 604.848H1156.03C1156.19 604.593 1156.4 604.334 1156.66 604.07C1156.92 603.803 1157.25 603.581 1157.64 603.404C1158.03 603.223 1158.49 603.132 1159.01 603.132C1159.71 603.132 1160.32 603.313 1160.84 603.675C1161.35 604.033 1161.73 604.574 1161.96 605.298C1162.19 606.018 1162.22 606.921 1162.04 608.007C1161.87 609.064 1161.55 609.957 1161.08 610.685C1160.62 611.409 1160.07 611.958 1159.42 612.332C1158.78 612.702 1158.1 612.888 1157.38 612.888C1156.87 612.888 1156.45 612.803 1156.12 612.635C1155.8 612.466 1155.54 612.254 1155.36 611.999C1155.18 611.74 1155.05 611.479 1154.98 611.215H1154.88L1154.04 616.287H1151.41ZM1155.37 607.995C1155.28 608.558 1155.28 609.05 1155.36 609.469C1155.45 609.889 1155.62 610.216 1155.88 610.45C1156.14 610.681 1156.48 610.796 1156.9 610.796C1157.33 610.796 1157.71 610.679 1158.05 610.444C1158.38 610.206 1158.66 609.876 1158.88 609.457C1159.1 609.033 1159.26 608.546 1159.35 607.995C1159.44 607.447 1159.44 606.966 1159.36 606.551C1159.28 606.135 1159.11 605.81 1158.85 605.576C1158.6 605.341 1158.25 605.224 1157.82 605.224C1157.39 605.224 1157.01 605.337 1156.68 605.563C1156.34 605.79 1156.07 606.111 1155.84 606.526C1155.62 606.941 1155.47 607.431 1155.37 607.995ZM1163.73 616.287C1163.39 616.287 1163.08 616.261 1162.81 616.207C1162.53 616.158 1162.3 616.094 1162.11 616.016L1163.04 614.054C1163.33 614.148 1163.6 614.198 1163.84 614.202C1164.08 614.206 1164.3 614.144 1164.5 614.017C1164.7 613.889 1164.89 613.679 1165.06 613.387L1165.29 612.986L1163.51 603.256H1166.18L1166.98 610.228H1167.08L1170.22 603.256H1173.1L1167.68 613.758C1167.41 614.272 1167.1 614.718 1166.73 615.097C1166.37 615.475 1165.94 615.767 1165.44 615.973C1164.95 616.183 1164.38 616.287 1163.73 616.287Z" fill="#334155"/>
<path d="M703.2 670.2H520.8C511.522 670.2 504 677.979 504 687.576V722.327C504 731.923 511.522 739.702 520.8 739.702H703.2C712.478 739.702 720 731.923 720 722.327V687.576C720 677.979 712.478 670.2 703.2 670.2Z" fill="white" stroke="#E2E8F0" stroke-width="1.24111"/>
<path d="M579.951 704.976C579.688 706.518 579.178 707.828 578.421 708.904C577.669 709.981 576.75 710.799 575.664 711.358C574.582 711.918 573.416 712.197 572.166 712.197C570.854 712.197 569.724 711.899 568.774 711.302C567.829 710.705 567.145 709.842 566.722 708.714C566.299 707.581 566.219 706.215 566.482 704.617C566.736 703.07 567.241 701.758 567.998 700.682C568.755 699.601 569.679 698.778 570.77 698.214C571.86 697.645 573.033 697.361 574.288 697.361C575.591 697.361 576.714 697.661 577.659 698.263C578.609 698.865 579.293 699.735 579.711 700.872C580.134 702.005 580.214 703.373 579.951 704.976ZM576.912 704.617C577.076 703.625 577.069 702.793 576.891 702.12C576.717 701.444 576.397 700.931 575.932 700.583C575.466 700.235 574.878 700.061 574.169 700.061C573.398 700.061 572.69 700.254 572.046 700.64C571.407 701.025 570.866 701.585 570.424 702.318C569.987 703.047 569.684 703.933 569.514 704.976C569.345 705.973 569.35 706.805 569.529 707.473C569.712 708.14 570.039 708.646 570.509 708.989C570.984 709.327 571.574 709.497 572.279 709.497C573.045 709.497 573.746 709.309 574.38 708.932C575.02 708.552 575.558 707.999 575.995 707.275C576.432 706.547 576.738 705.66 576.912 704.617ZM580.33 716.062L582.826 701.168H585.788L585.485 702.988H585.619C585.798 702.696 586.035 702.4 586.331 702.099C586.632 701.794 587.006 701.54 587.452 701.338C587.899 701.131 588.423 701.027 589.025 701.027C589.819 701.027 590.513 701.234 591.105 701.648C591.698 702.057 592.125 702.675 592.389 703.503C592.657 704.325 592.687 705.357 592.48 706.598C592.283 707.807 591.919 708.827 591.387 709.659C590.861 710.486 590.228 711.114 589.49 711.542C588.757 711.965 587.979 712.176 587.156 712.176C586.573 712.176 586.094 712.08 585.718 711.887C585.346 711.694 585.057 711.452 584.85 711.161C584.643 710.865 584.498 710.566 584.413 710.265H584.3L583.341 716.062H580.33ZM584.864 706.584C584.761 707.228 584.756 707.79 584.85 708.27C584.949 708.749 585.146 709.123 585.443 709.391C585.739 709.654 586.129 709.786 586.613 709.786C587.102 709.786 587.537 709.652 587.918 709.384C588.299 709.111 588.616 708.735 588.87 708.256C589.124 707.771 589.305 707.214 589.413 706.584C589.512 705.959 589.514 705.409 589.42 704.934C589.326 704.459 589.133 704.088 588.842 703.82C588.55 703.552 588.155 703.418 587.657 703.418C587.173 703.418 586.738 703.547 586.352 703.806C585.972 704.064 585.654 704.431 585.4 704.906C585.146 705.381 584.968 705.94 584.864 706.584ZM598.48 712.212C597.37 712.212 596.451 711.986 595.722 711.535C594.994 711.079 594.481 710.435 594.185 709.602C593.894 708.766 593.844 707.776 594.037 706.634C594.225 705.519 594.603 704.542 595.172 703.7C595.746 702.859 596.465 702.203 597.33 701.733C598.195 701.263 599.159 701.027 600.221 701.027C600.936 701.027 601.582 701.143 602.161 701.373C602.744 701.599 603.228 701.942 603.613 702.403C603.999 702.859 604.262 703.43 604.403 704.116C604.549 704.802 604.546 705.606 604.396 706.528L604.262 707.353H595.123L595.412 705.491H601.73C601.801 705.059 601.773 704.676 601.646 704.342C601.519 704.008 601.307 703.747 601.011 703.559C600.715 703.366 600.351 703.27 599.918 703.27C599.476 703.27 599.063 703.378 598.677 703.594C598.292 703.811 597.967 704.095 597.704 704.448C597.445 704.795 597.278 705.174 597.203 705.583L596.872 707.43C596.778 707.999 596.797 708.472 596.928 708.848C597.065 709.224 597.3 709.506 597.633 709.694C597.967 709.877 598.39 709.969 598.903 709.969C599.236 709.969 599.549 709.922 599.841 709.828C600.137 709.734 600.4 709.595 600.63 709.412C600.861 709.224 601.049 708.991 601.195 708.714L603.938 708.897C603.684 709.565 603.298 710.148 602.781 710.646C602.264 711.14 601.641 711.525 600.912 711.803C600.188 712.075 599.378 712.212 598.48 712.212ZM609.521 705.738L608.477 712H605.48L607.285 701.168H610.141L609.831 703.08H609.951C610.294 702.445 610.778 701.944 611.404 701.577C612.034 701.211 612.751 701.027 613.555 701.027C614.307 701.027 614.934 701.192 615.437 701.521C615.945 701.85 616.302 702.318 616.509 702.924C616.721 703.531 616.756 704.257 616.615 705.103L615.458 712H612.454L613.519 705.639C613.627 704.976 613.543 704.459 613.265 704.088C612.993 703.712 612.553 703.524 611.947 703.524C611.542 703.524 611.171 703.611 610.833 703.785C610.494 703.959 610.21 704.212 609.979 704.546C609.754 704.875 609.601 705.273 609.521 705.738ZM627.81 697.558L625.412 712H622.408L624.806 697.558H627.81ZM627.818 712L629.624 701.168H632.628L630.823 712H627.818ZM631.436 699.758C630.989 699.758 630.62 699.61 630.329 699.314C630.042 699.013 629.925 698.656 629.976 698.242C630.028 697.819 630.23 697.462 630.583 697.17C630.935 696.874 631.335 696.726 631.782 696.726C632.228 696.726 632.593 696.874 632.875 697.17C633.157 697.462 633.274 697.819 633.227 698.242C633.18 698.656 632.98 699.013 632.628 699.314C632.28 699.61 631.883 699.758 631.436 699.758ZM637.291 705.738L636.247 712H633.25L635.055 701.168H637.911L637.601 703.08H637.721C638.064 702.445 638.548 701.944 639.174 701.577C639.804 701.211 640.52 701.027 641.324 701.027C642.077 701.027 642.704 701.192 643.207 701.521C643.715 701.85 644.072 702.318 644.279 702.924C644.491 703.531 644.526 704.257 644.385 705.103L643.228 712H640.224L641.289 705.639C641.397 704.976 641.313 704.459 641.035 704.088C640.763 703.712 640.323 703.524 639.717 703.524C639.312 703.524 638.941 703.611 638.602 703.785C638.264 703.959 637.979 704.212 637.749 704.546C637.523 704.875 637.371 705.273 637.291 705.738ZM648.819 708.883L649.418 705.28H649.855L654.023 701.168H657.471L651.914 706.612H651.195L648.819 708.883ZM645.582 712L647.979 697.558H650.984L648.586 712H645.582ZM652.352 712L649.954 707.282L652.302 705.16L655.87 712H652.352Z" fill="#334155"/>
<path d="M1252.8 670.2H1051.2C1040.6 670.2 1032 679.091 1032 690.058V719.844C1032 730.812 1040.6 739.702 1051.2 739.702H1252.8C1263.4 739.702 1272 730.812 1272 719.844V690.058C1272 679.091 1263.4 670.2 1252.8 670.2Z" fill="#0284C7"/>
<path d="M1124.62 712H1118.78L1121.48 695.753H1127.21C1128.84 695.753 1130.2 696.086 1131.28 696.752C1132.36 697.419 1133.13 698.373 1133.57 699.616C1134.02 700.854 1134.1 702.332 1133.81 704.051C1133.53 705.712 1132.99 707.137 1132.17 708.327C1131.35 709.512 1130.3 710.421 1129.02 711.056C1127.74 711.685 1126.27 712 1124.62 712ZM1122.71 709.057H1124.82C1125.84 709.057 1126.74 708.866 1127.5 708.486C1128.28 708.105 1128.91 707.518 1129.4 706.724C1129.9 705.931 1130.25 704.916 1130.45 703.678C1130.65 702.504 1130.64 701.552 1130.41 700.822C1130.2 700.087 1129.78 699.55 1129.15 699.212C1128.53 698.868 1127.71 698.696 1126.69 698.696H1124.43L1122.71 709.057ZM1140.5 712.238C1139.25 712.238 1138.22 711.974 1137.41 711.445C1136.6 710.911 1136.02 710.17 1135.69 709.223C1135.36 708.271 1135.3 707.163 1135.51 705.899C1135.71 704.651 1136.12 703.559 1136.76 702.623C1137.39 701.687 1138.2 700.96 1139.18 700.441C1140.16 699.918 1141.26 699.656 1142.49 699.656C1143.72 699.656 1144.75 699.923 1145.57 700.457C1146.38 700.986 1146.95 701.726 1147.29 702.678C1147.62 703.63 1147.68 704.738 1147.48 706.002C1147.27 707.245 1146.85 708.335 1146.21 709.271C1145.57 710.207 1144.76 710.937 1143.79 711.461C1142.81 711.979 1141.72 712.238 1140.5 712.238ZM1140.83 709.62C1141.4 709.62 1141.91 709.459 1142.34 709.136C1142.79 708.808 1143.16 708.364 1143.45 707.803C1143.74 707.237 1143.95 706.597 1144.07 705.883C1144.18 705.18 1144.19 704.556 1144.09 704.011C1143.99 703.461 1143.78 703.028 1143.45 702.71C1143.14 702.393 1142.7 702.234 1142.15 702.234C1141.57 702.234 1141.07 702.398 1140.62 702.726C1140.18 703.049 1139.81 703.493 1139.52 704.059C1139.23 704.625 1139.03 705.267 1138.91 705.987C1138.8 706.685 1138.79 707.309 1138.89 707.859C1138.98 708.404 1139.19 708.835 1139.51 709.152C1139.83 709.464 1140.27 709.62 1140.83 709.62ZM1153.24 704.955L1152.07 712H1148.7L1150.73 699.815H1153.94L1153.59 701.964H1153.73C1154.11 701.25 1154.66 700.687 1155.36 700.275C1156.07 699.862 1156.88 699.656 1157.78 699.656C1158.63 699.656 1159.33 699.841 1159.9 700.211C1160.47 700.581 1160.87 701.108 1161.11 701.79C1161.34 702.472 1161.38 703.289 1161.23 704.241L1159.92 712H1156.54L1157.74 704.844C1157.86 704.098 1157.77 703.517 1157.46 703.099C1157.15 702.676 1156.66 702.464 1155.97 702.464C1155.52 702.464 1155.1 702.562 1154.72 702.758C1154.34 702.953 1154.02 703.239 1153.76 703.615C1153.51 703.985 1153.33 704.432 1153.24 704.955ZM1168.09 712.238C1166.85 712.238 1165.81 711.984 1164.99 711.476C1164.17 710.963 1163.6 710.239 1163.26 709.303C1162.93 708.361 1162.88 707.248 1163.1 705.963C1163.31 704.709 1163.73 703.609 1164.37 702.663C1165.02 701.716 1165.83 700.978 1166.8 700.449C1167.77 699.92 1168.86 699.656 1170.05 699.656C1170.86 699.656 1171.58 699.785 1172.23 700.045C1172.89 700.298 1173.44 700.685 1173.87 701.203C1174.3 701.716 1174.6 702.358 1174.76 703.131C1174.92 703.903 1174.92 704.807 1174.75 705.844L1174.6 706.772H1164.32L1164.64 704.678H1171.75C1171.83 704.191 1171.8 703.76 1171.66 703.385C1171.51 703.009 1171.27 702.715 1170.94 702.504C1170.61 702.287 1170.2 702.179 1169.71 702.179C1169.21 702.179 1168.75 702.3 1168.32 702.544C1167.88 702.787 1167.52 703.107 1167.22 703.504C1166.93 703.895 1166.74 704.321 1166.66 704.781L1166.28 706.859C1166.18 707.499 1166.2 708.031 1166.35 708.454C1166.5 708.877 1166.77 709.194 1167.14 709.406C1167.52 709.612 1167.99 709.715 1168.57 709.715C1168.94 709.715 1169.3 709.662 1169.62 709.557C1169.96 709.451 1170.25 709.295 1170.51 709.089C1170.77 708.877 1170.98 708.615 1171.15 708.303L1174.23 708.509C1173.95 709.26 1173.51 709.916 1172.93 710.477C1172.35 711.032 1171.65 711.466 1170.83 711.778C1170.02 712.085 1169.1 712.238 1168.09 712.238Z" fill="white"/>
<path d="M938.4 943.244H789.6C777.671 943.244 768 953.246 768 965.584C768 977.922 777.671 987.924 789.6 987.924H938.4C950.329 987.924 960 977.922 960 965.584C960 953.246 950.329 943.244 938.4 943.244Z" fill="#0284C7"/>
<path d="M789.599 973.031C793.576 973.031 796.799 969.697 796.799 965.584C796.799 961.472 793.576 958.138 789.599 958.138C785.623 958.138 782.399 961.472 782.399 965.584C782.399 969.697 785.623 973.031 789.599 973.031Z" fill="#0284C7"/>
<path d="M802.645 963.035C802.665 962.52 802.515 962.123 802.194 961.844C801.877 961.564 801.398 961.424 800.756 961.424C800.32 961.424 799.942 961.486 799.621 961.609C799.3 961.729 799.043 961.895 798.85 962.109C798.661 962.319 798.543 962.562 798.498 962.837C798.453 963.063 798.467 963.261 798.541 963.429C798.619 963.598 798.741 963.744 798.905 963.868C799.074 963.987 799.274 964.092 799.504 964.182C799.734 964.269 799.979 964.343 800.238 964.404L801.324 964.676C801.855 964.799 802.332 964.964 802.756 965.169C803.183 965.375 803.541 965.628 803.829 965.928C804.121 966.229 804.327 966.582 804.446 966.99C804.566 967.397 804.582 967.864 804.496 968.39C804.364 969.164 804.058 969.834 803.576 970.402C803.095 970.965 802.464 971.404 801.682 971.716C800.9 972.025 799.995 972.179 798.967 972.179C797.947 972.179 797.085 972.023 796.382 971.71C795.678 971.397 795.166 970.935 794.845 970.322C794.529 969.705 794.434 968.942 794.561 968.032H797.147C797.102 968.456 797.163 968.81 797.332 969.094C797.505 969.374 797.762 969.585 798.103 969.729C798.445 969.869 798.846 969.939 799.306 969.939C799.763 969.939 800.168 969.873 800.522 969.742C800.88 969.61 801.17 969.427 801.392 969.193C801.614 968.958 801.75 968.689 801.799 968.384C801.849 968.1 801.805 967.862 801.67 967.668C801.534 967.475 801.316 967.311 801.016 967.175C800.719 967.035 800.351 966.912 799.911 966.805L798.591 966.459C797.571 966.2 796.799 965.795 796.277 965.244C795.754 964.692 795.567 963.95 795.715 963.016C795.847 962.251 796.166 961.582 796.672 961.011C797.182 960.435 797.824 959.988 798.597 959.672C799.374 959.351 800.224 959.19 801.145 959.19C802.083 959.19 802.875 959.353 803.521 959.678C804.167 959.999 804.638 960.447 804.934 961.023C805.23 961.599 805.32 962.269 805.205 963.035H802.645ZM809.199 966.521L808.286 972H805.663L807.761 959.363H810.31L809.52 964.195H809.625C809.929 963.635 810.347 963.197 810.877 962.88C811.408 962.559 812.035 962.399 812.759 962.399C813.417 962.399 813.967 962.543 814.407 962.831C814.851 963.115 815.166 963.524 815.351 964.059C815.536 964.589 815.567 965.225 815.443 965.965L814.431 972H811.809L812.735 966.434C812.829 965.85 812.753 965.396 812.506 965.071C812.264 964.746 811.877 964.583 811.346 964.583C810.988 964.583 810.659 964.659 810.359 964.812C810.059 964.964 809.806 965.186 809.6 965.478C809.398 965.766 809.265 966.114 809.199 966.521ZM819.166 972.179C818.565 972.179 818.045 972.074 817.604 971.864C817.168 971.65 816.848 971.334 816.642 970.914C816.436 970.494 816.385 969.974 816.488 969.353C816.578 968.826 816.749 968.386 817 968.032C817.255 967.675 817.565 967.387 817.931 967.169C818.298 966.951 818.703 966.784 819.147 966.669C819.595 966.554 820.058 966.476 820.535 966.434C821.087 966.377 821.535 966.321 821.88 966.268C822.23 966.214 822.491 966.138 822.664 966.039C822.837 965.937 822.942 965.784 822.979 965.583V965.546C823.041 965.159 822.969 964.859 822.763 964.645C822.561 964.427 822.238 964.318 821.794 964.318C821.325 964.318 820.926 964.421 820.597 964.626C820.272 964.832 820.04 965.093 819.9 965.41L817.506 965.213C817.72 964.637 818.043 964.139 818.474 963.719C818.911 963.296 819.435 962.971 820.048 962.745C820.661 962.514 821.348 962.399 822.109 962.399C822.635 962.399 823.127 962.461 823.583 962.584C824.044 962.708 824.441 962.899 824.774 963.158C825.112 963.417 825.354 963.75 825.502 964.158C825.655 964.561 825.686 965.044 825.595 965.608L824.528 972H822.035L822.257 970.686H822.183C821.981 970.982 821.734 971.243 821.442 971.469C821.15 971.691 820.815 971.866 820.437 971.994C820.058 972.117 819.634 972.179 819.166 972.179ZM820.221 970.365C820.603 970.365 820.955 970.289 821.276 970.137C821.601 969.98 821.868 969.77 822.078 969.507C822.292 969.244 822.428 968.946 822.485 968.613L822.646 967.607C822.563 967.66 822.444 967.708 822.288 967.749C822.136 967.79 821.969 967.829 821.788 967.866C821.611 967.899 821.432 967.93 821.251 967.958C821.07 967.983 820.908 968.008 820.764 968.032C820.447 968.078 820.163 968.15 819.912 968.248C819.661 968.347 819.458 968.481 819.301 968.65C819.145 968.814 819.048 969.02 819.011 969.267C818.954 969.624 819.038 969.898 819.264 970.087C819.495 970.272 819.813 970.365 820.221 970.365ZM826.567 972L828.146 962.522H830.695L830.417 964.176H830.516C830.787 963.588 831.151 963.144 831.608 962.843C832.069 962.539 832.564 962.387 833.095 962.387C833.227 962.387 833.364 962.395 833.508 962.411C833.656 962.424 833.788 962.444 833.903 962.473L833.508 964.812C833.393 964.77 833.229 964.738 833.015 964.713C832.805 964.684 832.605 964.67 832.416 964.67C832.034 964.67 831.678 964.754 831.349 964.923C831.02 965.087 830.742 965.318 830.516 965.614C830.294 965.91 830.148 966.251 830.078 966.638L829.195 972H826.567ZM837.53 972.185C836.559 972.185 835.755 971.988 835.117 971.593C834.48 971.194 834.031 970.63 833.772 969.902C833.517 969.17 833.474 968.304 833.643 967.304C833.807 966.329 834.138 965.474 834.636 964.738C835.138 964.001 835.767 963.427 836.524 963.016C837.281 962.605 838.124 962.399 839.054 962.399C839.679 962.399 840.245 962.5 840.751 962.701C841.261 962.899 841.685 963.199 842.022 963.602C842.359 964.001 842.59 964.501 842.713 965.102C842.84 965.702 842.838 966.406 842.707 967.212L842.59 967.934H834.593L834.846 966.305H840.374C840.436 965.926 840.411 965.591 840.3 965.299C840.189 965.007 840.004 964.779 839.745 964.614C839.486 964.446 839.167 964.361 838.789 964.361C838.402 964.361 838.04 964.456 837.703 964.645C837.365 964.834 837.082 965.083 836.851 965.392C836.625 965.696 836.479 966.027 836.413 966.385L836.123 968.002C836.041 968.499 836.057 968.913 836.172 969.242C836.292 969.571 836.497 969.818 836.789 969.982C837.082 970.143 837.452 970.223 837.9 970.223C838.192 970.223 838.466 970.182 838.721 970.1C838.98 970.017 839.21 969.896 839.412 969.736C839.613 969.571 839.778 969.367 839.905 969.125L842.306 969.285C842.084 969.869 841.746 970.379 841.294 970.815C840.841 971.247 840.296 971.585 839.659 971.827C839.025 972.066 838.316 972.185 837.53 972.185ZM856.661 965.225L854.273 965.373C854.261 965.163 854.203 964.976 854.1 964.812C854.002 964.643 853.855 964.509 853.662 964.411C853.473 964.312 853.234 964.262 852.946 964.262C852.514 964.262 852.13 964.361 851.793 964.559C851.455 964.756 851.264 965.009 851.219 965.318C851.182 965.515 851.233 965.682 851.373 965.817C851.513 965.953 851.795 966.068 852.218 966.163L853.884 966.508C854.773 966.698 855.415 967.012 855.809 967.452C856.208 967.893 856.35 968.469 856.235 969.18C856.132 969.785 855.867 970.313 855.439 970.766C855.011 971.214 854.468 971.564 853.81 971.815C853.152 972.062 852.422 972.185 851.62 972.185C850.332 972.185 849.353 971.922 848.683 971.395C848.012 970.869 847.689 970.155 847.714 969.254L850.281 969.118C850.301 969.505 850.437 969.797 850.688 969.995C850.939 970.188 851.282 970.287 851.718 970.291C852.208 970.299 852.623 970.198 852.965 969.988C853.31 969.775 853.506 969.515 853.551 969.211C853.584 968.997 853.522 968.824 853.366 968.693C853.214 968.561 852.934 968.452 852.527 968.366L850.947 968.039C850.05 967.854 849.407 967.522 849.016 967.045C848.625 966.568 848.491 965.961 848.615 965.225C848.714 964.637 848.958 964.133 849.349 963.713C849.744 963.29 850.252 962.965 850.873 962.738C851.498 962.512 852.204 962.399 852.99 962.399C854.22 962.399 855.145 962.652 855.766 963.158C856.391 963.664 856.69 964.353 856.661 965.225ZM864.166 967.965L865.073 962.522H867.701L866.122 972H863.598L863.882 970.278H863.783C863.491 970.834 863.065 971.28 862.506 971.617C861.946 971.955 861.311 972.123 860.599 972.123C859.966 972.123 859.431 971.979 858.995 971.691C858.563 971.404 858.256 970.994 858.075 970.464C857.894 969.933 857.864 969.297 857.983 968.557L858.995 962.522H861.623L860.698 968.088C860.611 968.647 860.69 969.09 860.932 969.415C861.175 969.74 861.545 969.902 862.043 969.902C862.36 969.902 862.666 969.83 862.962 969.686C863.263 969.538 863.522 969.32 863.74 969.032C863.958 968.744 864.1 968.388 864.166 967.965ZM872.482 972.185C871.507 972.185 870.705 971.979 870.075 971.568C869.45 971.153 869.012 970.577 868.761 969.84C868.514 969.104 868.471 968.257 868.631 967.298C868.788 966.327 869.115 965.476 869.612 964.744C870.11 964.007 870.742 963.434 871.507 963.022C872.276 962.607 873.14 962.399 874.098 962.399C874.925 962.399 875.624 962.549 876.196 962.849C876.768 963.15 877.187 963.571 877.455 964.114C877.722 964.657 877.813 965.295 877.726 966.027H875.252C875.256 965.558 875.135 965.178 874.888 964.886C874.641 964.594 874.279 964.448 873.802 964.448C873.391 964.448 873.012 964.559 872.667 964.781C872.325 964.999 872.035 965.318 871.797 965.737C871.562 966.157 871.398 966.665 871.303 967.261C871.204 967.866 871.202 968.38 871.297 968.804C871.391 969.227 871.572 969.55 871.84 969.773C872.107 969.995 872.445 970.106 872.852 970.106C873.156 970.106 873.438 970.044 873.697 969.921C873.96 969.797 874.191 969.618 874.388 969.384C874.586 969.145 874.738 968.859 874.845 968.526H877.325C877.157 969.254 876.85 969.892 876.406 970.439C875.966 970.986 875.412 971.414 874.746 971.722C874.08 972.031 873.325 972.185 872.482 972.185ZM882.679 972.185C881.705 972.185 880.902 971.979 880.273 971.568C879.648 971.153 879.21 970.577 878.959 969.84C878.712 969.104 878.669 968.257 878.829 967.298C878.986 966.327 879.313 965.476 879.81 964.744C880.308 964.007 880.939 963.434 881.705 963.022C882.474 962.607 883.338 962.399 884.296 962.399C885.123 962.399 885.822 962.549 886.394 962.849C886.966 963.15 887.385 963.571 887.653 964.114C887.92 964.657 888.011 965.295 887.924 966.027H885.45C885.454 965.558 885.333 965.178 885.086 964.886C884.839 964.594 884.477 964.448 884 964.448C883.589 964.448 883.21 964.559 882.865 964.781C882.523 964.999 882.233 965.318 881.995 965.737C881.76 966.157 881.596 966.665 881.501 967.261C881.402 967.866 881.4 968.38 881.495 968.804C881.589 969.227 881.77 969.55 882.038 969.773C882.305 969.995 882.642 970.106 883.05 970.106C883.354 970.106 883.636 970.044 883.895 969.921C884.158 969.797 884.389 969.618 884.586 969.384C884.784 969.145 884.936 968.859 885.043 968.526H887.523C887.355 969.254 887.048 969.892 886.604 970.439C886.164 970.986 885.61 971.414 884.944 971.722C884.278 972.031 883.523 972.185 882.679 972.185ZM892.914 972.185C891.944 972.185 891.139 971.988 890.502 971.593C889.864 971.194 889.416 970.63 889.157 969.902C888.902 969.17 888.859 968.304 889.027 967.304C889.192 966.329 889.523 965.474 890.021 964.738C890.522 964.001 891.152 963.427 891.909 963.016C892.666 962.605 893.509 962.399 894.439 962.399C895.064 962.399 895.629 962.5 896.135 962.701C896.645 962.899 897.069 963.199 897.406 963.602C897.744 964.001 897.974 964.501 898.098 965.102C898.225 965.702 898.223 966.406 898.091 967.212L897.974 967.934H889.977L890.23 966.305H895.759C895.821 965.926 895.796 965.591 895.685 965.299C895.574 965.007 895.389 964.779 895.13 964.614C894.87 964.446 894.552 964.361 894.173 964.361C893.787 964.361 893.425 964.456 893.087 964.645C892.75 964.834 892.466 965.083 892.236 965.392C892.01 965.696 891.863 966.027 891.798 966.385L891.508 968.002C891.425 968.499 891.442 968.913 891.557 969.242C891.676 969.571 891.882 969.818 892.174 969.982C892.466 970.143 892.836 970.223 893.285 970.223C893.577 970.223 893.85 970.182 894.105 970.1C894.365 970.017 894.595 969.896 894.796 969.736C894.998 969.571 895.163 969.367 895.29 969.125L897.69 969.285C897.468 969.869 897.131 970.379 896.678 970.815C896.226 971.247 895.681 971.585 895.043 971.827C894.41 972.066 893.7 972.185 892.914 972.185ZM908.024 965.225L905.636 965.373C905.624 965.163 905.566 964.976 905.463 964.812C905.365 964.643 905.219 964.509 905.025 964.411C904.836 964.312 904.597 964.262 904.309 964.262C903.878 964.262 903.493 964.361 903.156 964.559C902.818 964.756 902.627 965.009 902.582 965.318C902.545 965.515 902.596 965.682 902.736 965.817C902.876 965.953 903.158 966.068 903.581 966.163L905.247 966.508C906.136 966.698 906.778 967.012 907.172 967.452C907.572 967.893 907.713 968.469 907.598 969.18C907.495 969.785 907.23 970.313 906.802 970.766C906.374 971.214 905.831 971.564 905.173 971.815C904.515 972.062 903.785 972.185 902.983 972.185C901.695 972.185 900.716 971.922 900.046 971.395C899.375 970.869 899.052 970.155 899.077 969.254L901.644 969.118C901.664 969.505 901.8 969.797 902.051 969.995C902.302 970.188 902.646 970.287 903.082 970.291C903.571 970.299 903.987 970.198 904.328 969.988C904.674 969.775 904.869 969.515 904.914 969.211C904.947 968.997 904.885 968.824 904.729 968.693C904.577 968.561 904.297 968.452 903.89 968.366L902.31 968.039C901.414 967.854 900.77 967.522 900.379 967.045C899.988 966.568 899.855 965.961 899.978 965.225C900.077 964.637 900.321 964.133 900.712 963.713C901.107 963.29 901.615 962.965 902.236 962.738C902.862 962.512 903.567 962.399 904.353 962.399C905.583 962.399 906.508 962.652 907.129 963.158C907.755 963.664 908.053 964.353 908.024 965.225ZM917.781 965.225L915.393 965.373C915.381 965.163 915.323 964.976 915.22 964.812C915.121 964.643 914.975 964.509 914.782 964.411C914.593 964.312 914.354 964.262 914.066 964.262C913.634 964.262 913.25 964.361 912.912 964.559C912.575 964.756 912.384 965.009 912.339 965.318C912.302 965.515 912.353 965.682 912.493 965.817C912.633 965.953 912.914 966.068 913.338 966.163L915.004 966.508C915.893 966.698 916.534 967.012 916.929 967.452C917.328 967.893 917.47 968.469 917.355 969.18C917.252 969.785 916.987 970.313 916.559 970.766C916.131 971.214 915.588 971.564 914.93 971.815C914.272 972.062 913.542 972.185 912.74 972.185C911.452 972.185 910.473 971.922 909.803 971.395C909.132 970.869 908.809 970.155 908.834 969.254L911.401 969.118C911.421 969.505 911.557 969.797 911.808 969.995C912.059 970.188 912.402 970.287 912.838 970.291C913.328 970.299 913.743 970.198 914.085 969.988C914.43 969.775 914.626 969.515 914.671 969.211C914.704 968.997 914.642 968.824 914.486 968.693C914.334 968.561 914.054 968.452 913.647 968.366L912.067 968.039C911.17 967.854 910.527 967.522 910.136 967.045C909.745 966.568 909.611 965.961 909.735 965.225C909.833 964.637 910.078 964.133 910.469 963.713C910.864 963.29 911.372 962.965 911.993 962.738C912.618 962.512 913.324 962.399 914.109 962.399C915.339 962.399 916.265 962.652 916.886 963.158C917.511 963.664 917.81 964.353 917.781 965.225ZM925.218 962.522L924.89 964.497H919.041L919.368 962.522H925.218ZM919.121 972L920.818 961.838C920.929 961.151 921.155 960.581 921.497 960.128C921.842 959.676 922.268 959.336 922.774 959.11C923.284 958.884 923.835 958.771 924.428 958.771C924.831 958.771 925.195 958.802 925.52 958.863C925.849 958.925 926.088 958.981 926.236 959.03L925.452 961.005C925.353 960.972 925.232 960.941 925.088 960.912C924.944 960.883 924.792 960.869 924.631 960.869C924.249 960.869 923.967 960.959 923.786 961.14C923.609 961.317 923.49 961.566 923.428 961.887L921.744 972H919.121ZM931.988 967.965L932.895 962.522H935.523L933.944 972H931.42L931.704 970.278H931.605C931.313 970.834 930.888 971.28 930.328 971.617C929.769 971.955 929.133 972.123 928.421 972.123C927.788 972.123 927.253 971.979 926.817 971.691C926.385 971.404 926.079 970.994 925.898 970.464C925.717 969.933 925.686 969.297 925.805 968.557L926.817 962.522H929.446L928.52 968.088C928.434 968.647 928.512 969.09 928.755 969.415C928.997 969.74 929.368 969.902 929.865 969.902C930.182 969.902 930.488 969.83 930.785 969.686C931.085 969.538 931.344 969.32 931.562 969.032C931.78 968.744 931.922 968.388 931.988 967.965ZM940.773 959.363L938.675 972H936.046L938.144 959.363H940.773Z" fill="white"/>
</g>
<defs>
<radialGradient id="paint0_radial_3350_2321" cx="0" cy="0" r="1" gradientUnits="userSpaceOnUse" gradientTransform="translate(34560 16755) scale(103680 67020)">
<stop stop-color="#C7D2FE" stop-opacity="0.4"/>
<stop offset="1" stop-color="#C7D2FE" stop-opacity="0"/>
</radialGradient>
<radialGradient id="paint1_radial_3350_2321" cx="0" cy="0" r="1" gradientUnits="userSpaceOnUse" gradientTransform="translate(146880 100530) scale(95040 61435)">
<stop stop-color="#BAE6FD" stop-opacity="0.35"/>
<stop offset="1" stop-color="#BAE6FD" stop-opacity="0"/>
</radialGradient>
<linearGradient id="paint2_linear_3350_2321" x1="787.2" y1="243.258" x2="945.972" y2="396.771" gradientUnits="userSpaceOnUse">
<stop stop-color="#4F46E5"/>
<stop offset="1" stop-color="#A855F7"/>
</linearGradient>
<clipPath id="clip0_3350_2321">
<rect width="1728" height="1117" fill="white"/>
</clipPath>
</defs>
</svg>
